<svg xmlns="http://www.w3.org/2000/svg" version="1.1" xmlns:xlink="http://www.w3.org/1999/xlink" xmlns:svgjs="http://svgjs.dev/svgjs" viewBox="0 0 800 800"><defs><linearGradient x1="50%" y1="0%" x2="50%" y2="100%" id="uundulate-grad"><stop stop-color="hsl(37, 99%, 67%)" stop-opacity="1" offset="45%"></stop><stop stop-color="hsl(316, 73%, 52%)" stop-opacity="1" offset="100%"></stop></linearGradient></defs><g stroke-width="2" stroke="url(#uundulate-grad)" fill="none"><path d="M1174.8883474292459 -471.77997324416697C1297.7693660810337 44.70384543401815 1011.7848967985317 1536.8468848347438 689.1039042575751 1681.3077747345837C366.4229117166183 1825.7686646344237 -251.09939811556103 738.1161169532477 -373.9804167673493 221.6322982750628C-496.86143541913754 -294.8515204031221 -223.4059778119638 -653.3536650208628 99.27501472899303 -797.8145549207028C421.95600726994985 -942.2754448205428 1052.0073287774576 -988.2637919223519 1174.8883474292459 -471.77997324416697C1297.7693660810337 44.70384543401815 1011.7848967985317 1536.8468848347438 689.1039042575751 1681.3077747345837 "></path><path d="M1163.3229704102753 -458.7684179393624C1284.369944007559 50.00668702720782 1002.6538996397212 1519.878934795087 684.7890413157934 1662.183692009855C366.92418299186556 1804.4884492246224 -241.38137594729596 733.0695216580909 -362.4283495445799 224.2944166915206C-483.4753231418638 -284.4806882750496 -214.1012902750956 -637.6320546149136 103.76356804883198 -779.9368118296813C421.6284263727598 -922.2415690444491 1042.2759968129913 -967.5435229059326 1163.3229704102753 -458.7684179393624C1284.369944007559 50.00668702720782 1002.6538996397212 1519.878934795087 684.7890413157934 1662.183692009855 "></path><path d="M1151.757471320992 -445.7567100466673C1270.9703998637715 55.30968120828811 993.5227804105978 1502.9111373433207 680.4740563036992 1643.0597618730162C367.4253321968008 1783.2083864027118 -231.66347584934329 728.0230789508244 -350.87640439212294 226.95668769586882C-470.0893329349026 -274.1097035590865 -204.79672480854003 -621.9102916210737 108.25199929835844 -762.0589161507693C421.3007234052568 -902.2075406804647 1032.544542778212 -946.8231013016228 1151.757471320992 -445.7567100466673C1270.9703998637715 55.30968120828811 993.5227804105978 1502.9111373433207 680.4740563036992 1643.0597618730162 "></path><path d="M1140.1919722317084 -432.7451242242847C1257.570855719984 60.61255331905613 984.3916611814743 1485.943217821242 676.159071291605 1623.9357096658655C367.9264814017358 1761.9282015104886 -221.9455757513906 722.9765141732457 -339.324459239666 229.618836629905C-456.70334272794133 -263.73884091343587 -195.49215934198435 -606.1886506975464 112.7404305478849 -744.1811425421697C420.97302043775426 -882.173634386793 1022.8130887434331 -926.1028017676256 1140.1919722317084 -432.7451242242847C1257.570855719984 60.61255331905613 984.3916611814743 1485.943217821242 676.159071291605 1623.9357096658655 "></path><path d="M1128.626473142425 -419.733538401902C1244.1713115761963 65.91542542982415 975.2605419523509 1468.9752982991636 671.8440862795107 1604.8116574587148C368.42763060667085 1740.6480166182655 -212.22767565343793 717.9299493956673 -327.77251408720906 232.28098556394093C-443.3173525209801 -253.36797826778525 -186.18759387542866 -590.4670097740191 117.22886179741135 -726.3033689335701C420.6453174702515 -862.1397280931212 1013.0816347086543 -905.3825022336282 1128.626473142425 -419.733538401902C1244.1713115761963 65.91542542982415 975.2605419523509 1468.9752982991636 671.8440862795107 1604.8116574587148 "></path><path d="M1117.0609740531418 -406.72186102678506C1230.7717674324088 71.21838909332632 966.1294227232274 1452.0074703298187 667.5291012674165 1585.687696804298C368.9287798116061 1719.3679232787767 -202.50977555548536 712.8834761708226 -316.2205689347521 234.94322605071125C-429.9313623140188 -242.99702406940025 -176.8830284088731 -574.7452772977574 121.71729304693781 -708.4255037722362C420.3176145027487 -842.105730246715 1003.350180673875 -884.6621111468965 1117.0609740531418 -406.72186102678506C1230.7717674324088 71.21838909332632 966.1294227232274 1452.0074703298187 667.5291012674165 1585.687696804298 "></path><path d="M1105.4954749638587 -393.7102752044025C1217.3722232886212 76.52126120409412 956.9983034941042 1435.0395508077404 663.2141162553226 1566.5636445971468C369.4299290165409 1698.0877383865536 -192.79187545753268 707.8369113932438 -304.6686237822952 237.60537498474696C-416.5453721070576 -232.62616142374964 -167.5784629423174 -559.02363637423 126.20572429646427 -690.5477301636365C419.98991153524594 -822.0718239530431 993.6187266390962 -863.9418116128992 1105.4954749638587 -393.7102752044025C1217.3722232886212 76.52126120409412 956.9983034941042 1435.0395508077404 663.2141162553226 1566.5636445971468 "></path><path d="M1093.9299758745753 -380.6985978292855C1203.9726791448334 81.82422486759651 947.8671842649808 1418.071722838396 658.8991312432283 1547.43968394273C369.9310782214759 1676.8076450470644 -183.07397535958012 702.7904381683993 -293.11667862983825 240.26761547151727C-403.1593819000964 -222.25520722536476 -158.27389747576171 -543.3019038979683 130.69415554599072 -672.6698650023027C419.66220856774316 -802.037826106637 983.8872726043173 -843.2214205261674 1093.9299758745753 -380.6985978292855C1203.9726791448334 81.82422486759651 947.8671842649808 1418.071722838396 658.8991312432283 1547.43968394273 "></path><path d="M1082.364476785292 -367.6867678662778C1190.5731350010458 87.12734111898953 938.7360650358573 1401.1040474569422 654.5841462311341 1528.3158758762042C370.4322274264109 1655.5277042954663 -173.35607526162744 697.7441175314455 -281.56473347738125 242.93000854617821C-389.7733916931351 -211.88410043908914 -148.96933200920603 -527.580018833816 135.18258679551718 -654.791847253078C419.3345056002404 -782.0036756723401 974.1558185695383 -822.5008768515452 1082.364476785292 -367.6867678662778C1190.5731350010458 87.12734111898953 938.7360650358573 1401.1040474569422 654.5841462311341 1528.3158758762042 "></path><path d="M1070.798977696009 -354.6751820438951C1177.1735908572582 92.43021322975756 929.6049458067339 1384.1361279348635 650.2691612190399 1509.191823669053C370.93337663134594 1634.2475194032427 -163.63817516367476 692.6975527538666 -270.0127883249243 245.59215748021415C-376.38740148617387 -201.51323779343852 -139.66476654265034 -511.8583779102886 139.67101804504364 -636.9140736444785C419.0068026327376 -761.9697693786684 964.4243645347592 -801.7805773175478 1070.798977696009 -354.6751820438951C1177.1735908572582 92.43021322975756 929.6049458067339 1384.1361279348635 650.2691612190399 1509.191823669053 "></path><path d="M1059.2334786067256 -341.66359622151253C1163.7740467134709 97.73308534052535 920.4738265776105 1367.1682084127847 645.9541762069457 1490.0677714619023C371.43452583628095 1612.96733451102 -153.9202750657222 687.650987976288 -258.4608431724674 248.2543064142501C-363.0014112792126 -191.1423751477879 -130.36020107609465 -496.1367369867613 144.1594492945701 -619.0363000358789C418.67909966523484 -741.9358630849965 954.6929104999804 -781.0602777835505 1059.2334786067256 -341.66359622151253C1163.7740467134709 97.73308534052535 920.4738265776105 1367.1682084127847 645.9541762069457 1490.0677714619023 "></path><path d="M1047.6679795174423 -328.65201039912995C1150.3745025696833 103.03595745129337 911.3427073484875 1350.200288890706 641.6391911948517 1470.9437192547516C371.9356750412161 1591.6871496187969 -144.20237496776952 682.6044231987091 -246.90889802001044 250.91645534828604C-349.61542107225137 -180.77151250213728 -121.05563560953908 -480.41509606323393 148.64788054409655 -601.1585264272793C418.35139669773207 -721.9019567913247 944.9614564652013 -760.3399782495532 1047.6679795174423 -328.65201039912995C1150.3745025696833 103.03595745129337 911.3427073484875 1350.200288890706 641.6391911948517 1470.9437192547516 "></path><path d="M1036.102480428159 -315.64018043612236C1136.9749584258957 108.33907370268616 902.2115881193638 1333.2326135092521 637.3242061827575 1451.8199111882254C372.4368242461511 1570.4072088671983 -134.4844748698169 677.5581025617553 -235.3569528675535 253.57884842294675C-336.22943086529017 -170.40040571586178 -111.7510701429834 -464.69321099908166 153.136311793623 -583.2805086780547C418.0236937302293 -701.8678063570279 935.2300024304222 -739.6194345749309 1036.102480428159 -315.64018043612236C1136.9749584258957 108.33907370268616 902.2115881193638 1333.2326135092521 637.3242061827575 1451.8199111882254 "></path><path d="M1024.5369508212973 -302.6286251313178C1123.5753837645298 113.64191529587606 893.0804383726625 1316.2646634695957 633.0091906530852 1432.6958284634961C372.9379429335081 1549.1269934573975 -124.7666052894424 672.5115072665985 -223.8050382326747 256.2409668394048C-322.84347117590704 -160.02957358778917 -102.44653519400583 -448.9716005931324 157.62471252557134 -565.4027655870333C417.6959602451484 -681.8339305809343 925.4985178780653 -718.8991655585116 1024.5369508212973 -302.6286251313178C1123.5753837645298 113.64191529587606 893.0804383726625 1316.2646634695957 633.0091906530852 1432.6958284634961 "></path><path d="M1012.9714517320142 -289.61710034409145C1110.1758396207422 118.94472637148783 883.949319143539 1299.2966829123607 628.6942056409912 1413.5717152211892C373.439092138443 1527.8467475300176 -115.04870519148972 667.4648814538634 -212.25309308021775 258.9030547382845C-309.4574809689458 -149.6587719772947 -93.14196972745015 -433.25002070476125 162.1131437750978 -547.52505301359C417.36825727764585 -661.8000853224187 915.7670638432862 -698.1789270596705 1012.9714517320142 -289.61710034409145C1110.1758396207422 118.94472637148783 883.949319143539 1299.2966829123607 628.6942056409912 1413.5717152211892 "></path><path d="M1001.4059526427309 -276.60536193381824C1096.7762954769546 124.24775107014602 874.8181999144156 1282.3289159781725 624.3792206288967 1394.4478156019286C373.94024134337815 1506.5667152256851 -105.3308050935371 662.4184692641754 -200.70114792776081 261.5653562602108C-296.07149076198453 -139.28775674375356 -83.83740426089452 -417.52822719334335 166.60157502462425 -529.6471268170998C417.04055431014297 -641.7660264408562 906.0356098085072 -677.4584749377826 1001.4059526427309 -276.60536193381824C1096.7762954769546 124.24775107014602 874.8181999144156 1282.3289159781725 624.3792206288967 1394.4478156019286 "></path><path d="M989.8404535534476 -263.59365404112305C1083.376751333167 129.55074525122654 865.6870806852924 1265.3611185264058 620.0642356168028 1375.3238854650904C374.44139054831317 1485.2866524037745 -95.61290499558447 657.3720265569088 -189.14920277530388 264.22762726455903C-282.6855005550233 -128.91677202779044 -74.53283879433889 -401.8064641995036 171.0900062741507 -511.7692311381877C416.7128513426403 -621.7319980768718 896.3041557737283 -656.7380533334729 989.8404535534476 -263.59365404112305C1083.376751333167 129.55074525122654 865.6870806852924 1265.3611185264058 620.0642356168028 1375.3238854650904 "></path><path d="M978.2749544641645 -250.58206821874046C1069.9772071893794 134.85361736199457 856.5559614561689 1248.3931990043275 615.7492506047085 1356.1998332579392C374.9425397532482 1464.006467511551 -85.89500489763185 652.32546177933 -177.59725762284694 266.889776198595C-269.2995103480621 -118.54590938213983 -65.2282733277832 -386.0848232759762 175.57843752367717 -493.89145752958814C416.38514837513753 -601.6980917832001 886.5727017389493 -636.0177537994755 978.2749544641645 -250.58206821874046C1069.9772071893794 134.85361736199457 856.5559614561689 1248.3931990043275 615.7492506047085 1356.1998332579392 "></path><path d="M966.7094553748811 -237.57036032604537C1056.577663045592 140.1566115430751 847.4248422270455 1231.4254015525612 611.4342655926143 1337.075903121101C375.4436889581832 1442.7264046896407 -76.17710479967923 647.2790190720639 -166.04531247039 269.5520472029434C-255.91352014110083 -108.17492466617682 -55.92370786122751 -370.3630602821363 180.06686877320362 -476.01356185067607C416.05744540763476 -581.6640634192158 876.8412477041702 -615.2973321951656 966.7094553748811 -237.57036032604537C1056.577663045592 140.1566115430751 847.4248422270455 1231.4254015525612 611.4342655926143 1337.075903121101 "></path><path d="M955.1439562855978 -224.5587745036628C1043.1781189018045 145.45948365384288 838.293722997922 1214.4574820304824 607.1192805805201 1317.9518509139498C375.9448381631182 1421.4462197974171 -66.45920470172655 642.232454294485 -154.49336731793306 272.21419613697935C-242.52752993413958 -97.8040620205262 -46.619142394671826 -354.641419358609 184.55530002273008 -458.1357882420765C415.729742440132 -561.630157125544 867.1097936693914 -594.5770326611683 955.1439562855978 -224.5587745036628C1043.1781189018045 145.45948365384288 838.293722997922 1214.4574820304824 607.1192805805201 1317.9518509139498 "></path><path d="M943.5784571963145 -211.54721919885822C1029.7785747580167 150.76232524703255 829.1626037687988 1197.4895319908255 602.8042955684259 1298.8277681892205C376.44598736805335 1400.1660043876159 -56.741304603773926 637.1858589993283 -142.94142216547613 274.87631455343717C-229.14153972717833 -87.4332298924536 -37.314576928116196 -338.91980895265976 189.04373127225654 -440.25804515105506C415.4020394726292 -541.5962813494502 857.3783396346123 -573.8567636447492 943.5784571963145 -211.54721919885822C1029.7785747580167 150.76232524703255 829.1626037687988 1197.4895319908255 602.8042955684259 1298.8277681892205 "></path><path d="M932.012927589453 -198.53551130616302C1016.379000096651 156.06531942811307 820.0314540220973 1180.5217345390593 598.4892800387538 1279.7038380523823C376.94710605541025 1378.8859415657053 -47.02343502339943 632.1394162920619 -131.3895075305973 277.5385855577856C-215.75558003779526 -77.06224517649059 -28.010041979138634 -323.19804595882 193.53213200420487 -422.380149472143C415.0743059875484 -521.5622529854659 847.6468550822551 -553.1363420404393 932.012927589453 -198.53551130616302C1016.379000096651 156.06531942811307 820.0314540220973 1180.5217345390593 598.4892800387538 1279.7038380523823 "></path><path d="M920.4474590177481 -185.52392548378043C1002.9794864704415 161.3681915388811 810.9003653105519 1163.5538150169807 594.1743255442375 1260.579785845231C377.4482857779233 1357.6057566734817 -37.305504407868625 627.0928515144831 -119.83753186056225 280.20073449182155C-202.36955931325588 -66.69138253083997 -18.70544599500488 -307.4764050352926 198.02059377130945 -404.50237586354336C414.7466335376238 -501.5283466917941 837.9154315650544 -532.416042506442 920.4474590177481 -185.52392548378043C1002.9794864704415 161.3681915388811 810.9003653105519 1163.5538150169807 594.1743255442375 1260.579785845231 "></path><path d="M908.8819599284645 -172.51224810866347C989.579942326654 166.67115520238337 801.7692460814287 1146.585987047636 589.8593405321435 1241.4558251908147C377.9494349828584 1336.325663333993 -27.587604309916003 622.0463782896386 -108.28558670810531 282.86297497859186C-188.98356910629462 -56.32042833245487 -9.400880528449193 -291.75467255903095 202.5090250208359 -386.6245107022094C414.418930570121 -481.49434884538795 828.1839775302753 -511.6956514197103 908.8819599284645 -172.51224810866347C989.579942326654 166.67115520238337 801.7692460814287 1146.585987047636 589.8593405321435 1241.4558251908147 "></path><path d="M897.3164303216031 -159.50060125112464C976.1803676652883 171.97408834830753 792.6380963347272 1129.6181285607136 585.5443250024712 1222.3318340188198C378.4505536702154 1315.045539476926 -17.869734729541506 616.9998745472162 -96.7336720732265 285.52518494778406C-175.5976094169115 -45.94950465164811 -0.09634557947168787 -276.0329706003473 206.99742575278424 -368.7466760584536C414.0911970850401 -461.4603815165599 818.4524929779182 -490.97529085055675 897.3164303216031 -159.50060125112464C976.1803676652883 171.97408834830753 792.6380963347272 1129.6181285607136 585.5443250024712 1222.3318340188198 "></path><path d="M885.75093123232 -146.4889543935858C962.7808235215007 177.27702149423158 783.5069771056037 1112.650270073791 581.229339990377 1203.207842846825C378.9517028751503 1293.7654156198591 -8.151834631588883 611.9533708047934 -85.18172692076956 288.18739491697625C-162.21161920995024 -35.57858097084136 9.208219887083999 -260.3112686416638 211.4858570023107 -350.8688414146978C413.76349411753733 -441.42641418773184 808.7210389431393 -470.2549302814032 885.75093123232 -146.4889543935858C962.7808235215007 177.27702149423158 783.5069771056037 1112.650270073791 581.229339990377 1203.207842846825 "></path><path d="M874.1854931781929 -133.47730753604685C949.3813404128693 182.57995464015585 774.3759189116367 1095.682411586869 576.914416013439 1184.0838516748306C379.4529131152416 1272.4852917627923 1.5661265015199888 606.906867062371 -73.62972073315638 290.84960488616844C-148.8255679678328 -25.207657290034376 18.512846388795936 -244.58956668298015 215.9743492869934 -332.99100677094196C413.4358521851909 -421.3924468589037 798.9896459435165 -449.5345697122496 874.1854931781929 -133.47730753604685C949.3813404128693 182.57995464015585 774.3759189116367 1095.682411586869 576.914416013439 1184.0838516748306 "></path><path d="M862.6199940889096 -120.46566067850802C935.9817962690818 187.88288778608012 765.2447996825131 1078.7145530999462 572.599431001345 1164.959860502836C379.9540623201767 1251.2051679057254 11.284026599472668 601.8603633199486 -62.07777558069944 293.5118148553606C-135.43957776087154 -14.836733609227508 27.817411855351565 -228.86786472429662 220.46278053651986 -315.11317212718615C413.10814921768815 -401.35847953007567 789.2581919087374 -428.81420914309604 862.6199940889096 -120.46566067850802C935.9817962690818 187.88288778608012 765.2447996825131 1078.7145530999462 572.599431001345 1164.959860502836 "></path><path d="M851.05443396447 -107.45404433854719C922.5821910901377 193.18579041442604 756.1136194182336 1061.7466640954456 568.2843849540945 1145.8358388132629C380.4551504899555 1229.9250135310801 21.00186566226904 596.8138290599477 -50.52589146339875 296.1739943069746C-122.05364858906654 -4.465840445998765 37.121916286751 -213.1461932831911 224.95115075089006 -297.23536800100845C412.7803852150291 -381.32454271882574 779.5266768388024 -408.0938790915206 851.05443396447 -107.45404433854719C922.5821910901377 193.18579041442604 756.1136194182336 1061.7466640954456 568.2843849540945 1145.8358388132629 "></path><path d="M839.488995910343 -94.44239748100836C909.1827079815066 198.4887235603502 746.9825612242666 1044.778805608523 563.9694609771567 1126.7118476412684C380.95636073004675 1208.6448896740133 30.719826795377912 591.7673253175253 -38.97388527578556 298.83620427616665C-108.66759734694904 5.905083234808103 46.42654278846294 -197.42449132450753 229.43964303557277 -279.3575333572526C412.4527432826826 -361.2905753899977 769.7952838391795 -387.373518522367 839.488995910343 -94.44239748100836C909.1827079815066 198.4887235603502 746.9825612242666 1044.778805608523 563.9694609771567 1126.7118476412684 "></path><path d="M827.9234357859036 -81.43075062346952C895.7831028025628 203.79165670627435 737.8513809599867 1027.8109471216005 559.6544149299062 1107.5878564692734C381.4574488998255 1187.3647658169461 40.43766585817434 586.720821575103 -27.422001158484875 301.49841424535884C-95.28166817514403 16.27600691561497 55.73104721986232 -181.70278936582395 233.92801324994298 -261.47969871349676C412.1249792800236 -341.25660806116963 760.0637687692442 -366.6531579532134 827.9234357859036 -81.43075062346952C895.7831028025628 203.79165670627435 737.8513809599867 1027.8109471216005 559.6544149299062 1107.5878564692734 "></path><path d="M816.3579977317763 -68.41913428350881C882.3836196939315 209.09455933462039 728.7203227660198 1010.8430581170999 555.3394909529683 1088.4638347797006C381.9586591399168 1166.0846114423014 50.155626991283214 581.674287315102 -15.869994970871687 304.1605936969729C-81.89561693302659 26.6469000788436 65.0356737215742 -165.9811179247185 238.41650553462568 -243.60189458731907C411.79733734767706 -321.2226712499197 750.3323757696216 -345.93282790163795 816.3579977317763 -68.41913428350881C882.3836196939315 209.09455933462039 728.7203227660198 1010.8430581170999 555.3394909529683 1088.4638347797006 "></path><path d="M804.792437607337 -55.40742639081361C868.9840145149874 214.3975535157008 719.5891425017401 993.8752606653338 551.0244449057178 1069.3399046428624C382.45974730969556 1144.8045486203905 59.873466054079586 576.6278446078359 -4.3181108535709996 306.82286470132135C-68.50968776122158 37.01788479480683 74.34017815297364 -150.25935493087866 242.9048757489959 -225.723998908407C411.46957334501815 -301.1886428859354 740.6008606996863 -325.21240629732813 804.792437607337 -55.40742639081361C868.9840145149874 214.3975535157008 719.5891425017401 993.8752606653338 551.0244449057178 1069.3399046428624 "></path><path d="M793.2269995532099 -42.395840568431026C855.5845314063563 219.7004256264688 710.4580843077729 976.907341143255 546.70952092878 1050.2158524357112C382.9609575497868 1123.5243637281674 69.59142718718846 571.5812798302572 7.233895334042188 309.4850136353572C-55.12363651910408 47.38874744045734 83.64480465468557 -134.53771400735127 247.3933680336786 -207.84622529980743C411.1419314126716 -281.15473659226353 730.8694677000635 -304.4921067633308 793.2269995532099 -42.395840568431026C855.5845314063563 219.7004256264688 710.4580843077729 976.907341143255 546.70952092878 1050.2158524357112 "></path><path d="M781.6614394287703 -29.384254746048327C842.1849262274122 225.00329773723672 701.3269040434934 959.9394216211763 542.3944748815295 1031.0918002285603C383.4620457195656 1102.244178835944 79.30926624998483 566.5347150526782 18.785779451342876 312.1471625693931C-41.73770734729908 57.75961008610807 92.94930908608501 -118.816073083824 251.8817382480488 -189.96845169120786C410.8141674100127 -261.1208302985917 721.1379526301284 -283.7718072293335 781.6614394287703 -29.384254746048327C842.1849262274122 225.00329773723672 701.3269040434934 959.9394216211763 542.3944748815295 1031.0918002285603 "></path><path d="M770.0959098219089 -16.372516335775117C828.7853515660468 230.30632243589525 692.1957542967918 942.9716546869881 538.0794593518572 1011.9679006092999C383.9631644069226 1080.9641465316115 89.02713583035938 561.4883028629902 30.33769408622169 314.8094640913197C-28.351747657916007 68.1306253196492 102.25384403506251 -103.09427957240604 256.37013897999714 -172.09052549471767C410.4864339249318 -241.0867714170293 711.4064680777713 -263.05135510744554 770.0959098219089 -16.372516335775117C828.7853515660468 230.30632243589525 692.1957542967918 942.9716546869881 538.0794593518572 1011.9679006092999 "></path><path d="M758.5304717677818 -3.360869478236282C815.3858684574152 235.6092555818194 683.0646961028247 926.0037962000656 533.7645353749192 992.8439094373052C384.464374647014 1059.6840226745446 98.74509696346826 556.4417991205676 41.889700273834876 317.4716740605119C-14.965696415798504 78.50154900045618 111.5584705367744 -87.37257761372246 260.85863126467984 -154.21269085096185C410.1587919925853 -221.05280408820124 701.6750750781484 -242.33099453829198 758.5304717677818 -3.360869478236282C815.3858684574152 235.6092555818194 683.0646961028247 926.0037962000656 533.7645353749192 992.8439094373052 "></path><path d="M746.9649116433425 9.650777379302554C801.9862632784714 240.91218872774357 673.9335158385451 909.0359377131433 529.4494893276689 973.7199182653103C384.96546281679264 1038.4038988174775 108.46293602626463 551.395295378145 53.441584391135564 320.13388402970395C-1.5797672439935013 88.87247268126293 120.86297496817383 -71.65087565503882 265.34700147905005 -136.33485620720603C409.83102798992627 -201.0188367593732 691.9435600082134 -221.6106339691384 746.9649116433425 9.650777379302554C801.9862632784714 240.91218872774357 673.9335158385451 909.0359377131433 529.4494893276689 973.7199182653103 "></path><path d="M735.3994735892154 22.662332684107128C788.58678016984 246.21503032093347 664.8024576445779 892.0679876734864 525.1345653507309 954.5958355405812C385.4666730568839 1017.123683407676 118.18089715937356 546.348700082988 64.99359057874875 322.79600244616176C11.806283998124002 99.24330480933543 130.16760146988577 -55.92926524908961 269.83549376373276 -118.45711311618459C409.50338605757975 -180.9849609832795 682.2121670085905 -200.8903649527192 735.3994735892154 22.662332684107128C788.58678016984 246.21503032093347 664.8024576445779 892.0679876734864 525.1345653507309 954.5958355405812 "></path><path d="M723.8339134647758 35.67404057680221C775.1871749908964 251.51802450201387 655.6712773802984 875.1001902217201 520.8195193034805 935.471905403743C385.9677612266628 995.8436205857656 127.89873622216993 541.3022573757216 76.54547469604944 325.4582734505102C25.192213169929005 109.61428952529855 139.47210590128515 -40.20750225524978 274.32386397810296 -100.57921743727246C409.1756220549207 -160.95093261929514 672.4806519386553 -180.1699433484094 723.8339134647758 35.67404057680221C775.1871749908964 251.51802450201387 655.6712773802984 875.1001902217201 520.8195193034805 935.471905403743 "></path><path d="M712.2684754106486 48.68568743434116C761.7876918822649 256.82095764793803 646.5402191863312 858.1323317347978 516.5045953265426 916.3479142317481C386.46897146675406 974.5634967286987 137.6166973552788 536.2557536332993 88.09748088366263 328.1204834197024C38.57826441204645 119.98521320610541 148.77673240299708 -24.485800296566197 278.81235626278567 -82.70138279351664C408.8479801225742 -140.9169652904671 662.7492589390326 -159.44958277925582 712.2684754106486 48.68568743434116C761.7876918822649 256.82095764793803 646.5402191863312 858.1323317347978 516.5045953265426 916.3479142317481 "></path><path d="M700.7029763213654 61.69733429188C748.3881477384773 262.1238907938621 637.4090999572078 841.1644732478753 512.1896103144484 897.2239230597534C386.9701206716891 953.2833728716316 147.33459745323142 531.2092498908768 99.64942603611956 330.7826933888945C51.964254619007704 130.35613688691228 158.0812978695527 -8.764098337882615 283.3007875123121 -64.82354814976082C408.5202771550714 -120.88299796163903 653.0178049042536 -138.72922221010225 700.7029763213654 61.69733429188C748.3881477384773 262.1238907938621 637.4090999572078 841.1644732478753 512.1896103144484 897.2239230597534 "></path><path d="M689.1374772320822 74.70888959668446C734.9886035946897 267.42673238705197 628.2779807280845 824.1965232082184 507.8746253023543 878.0998403350243C387.4712698766241 932.0031574618301 157.0524975511841 526.1626545957197 111.2013711885765 333.4448118053522C65.35024482596896 140.72696901498477 167.3858633361084 6.957512068066592 287.7892187618386 -46.94580505873938C408.19257418756877 -100.84912218554535 643.2863508694746 -118.00895319368306 689.1374772320822 74.70888959668446C734.9886035946897 267.42673238705197 628.2779807280845 824.1965232082184 507.8746253023543 878.0998403350243 "></path><path d="M677.5719781427989 87.72059748937954C721.5890594509023 272.7297265681324 619.146861498961 807.2287257564521 503.55964029026006 858.9759101981858C387.9724190815591 910.7230946399195 166.77039764913673 521.1162118884534 122.75331634103344 336.1070828097006C78.73623503293021 151.0979537309479 176.6904288026641 22.679275061906424 292.27765001136504 -29.067909379827313C407.864871220066 -80.81509382156105 633.5548968346957 -97.28853158937324 677.5719781427989 87.72059748937954C721.5890594509023 272.7297265681324 619.146861498961 807.2287257564521 503.55964029026006 858.9759101981858 "></path><path d="M666.0064790535156 100.73224434691849C708.1895153071146 278.03265971405654 610.0157422698377 790.2608672695296 499.24465527816596 839.8519190261911C388.4735682864941 889.4429707828526 176.48829774708935 516.069708146031 134.30526149349038 338.7692927788928C92.12222523989146 161.46887741175465 185.99499426921972 38.400977020590005 296.7660812608915 -11.190074736071494C407.53716825256333 -60.781126492732994 623.8234427999166 -76.56817102021967 666.0064790535156 100.73224434691849C708.1895153071146 278.03265971405654 610.0157422698377 790.2608672695296 499.24465527816596 839.8519190261911 "></path><path d="M654.4409799642323 113.74389120445733C694.789971163327 283.3355928599808 600.8846230407144 773.2930087826071 494.92967026607175 820.7279278541964C388.97471749142915 868.1628469257855 186.20619784504197 511.02320440360836 145.85720664594731 341.431502748085C105.50821544685266 171.83980109256163 195.2995597357754 54.12267897927359 301.25451251041795 6.687759907684324C407.20946528506056 -40.74715916390488 614.0919887651377 -55.847810451066096 654.4409799642323 113.74389120445733C694.789971163327 283.3355928599808 600.8846230407144 773.2930087826071 494.92967026607175 820.7279278541964 "></path><path d="M642.8754961337381 126.75547702683991C681.3904422783285 288.6384649707486 591.75351907038 756.3250892605283 490.6147005127666 801.6038756470452C389.4758819551532 846.8826620335624 195.9241132017837 505.9766396260295 157.40916705719332 344.09365168212094C118.89422091260298 182.21066373821213 204.6041404611201 69.84431990280092 305.7429590187335 24.565533516283892C406.88177757634685 -20.713252870233077 604.3605499891478 -35.127510917068776 642.8754961337381 126.75547702683991C681.3904422783285 288.6384649707486 591.75351907038 756.3250892605283 490.6147005127666 801.6038756470452 "></path><path d="M631.3099970444548 139.76718491953505C667.9908981345409 293.9414591518291 582.6223998412565 739.357291808762 486.2997155006725 782.479945510207C389.97703116008836 825.6025992116518 205.64201329973633 500.9301969187634 168.9611122096503 346.7559226864694C132.28021111956423 192.58164845417537 213.90870592767578 85.56608289664075 310.23139026825993 42.44342919519602C406.5540746088441 -0.6792245062487723 594.6290959543687 -14.407089312758956 631.3099970444548 139.76718491953505C667.9908981345409 293.9414591518291 582.6223998412565 739.357291808762 486.2997155006725 782.479945510207 "></path><path d="M619.7444979551715 152.77883177707395C654.5913539907533 299.24439229775317 573.4912806121333 722.3894333218395 481.9847304885784 763.3559543382123C390.4781803650234 804.3224753545846 215.35991339768896 495.8836931763408 180.51305736210725 349.41813265566145C145.66620132652548 202.95257213498212 223.21327139423147 101.28778485532439 314.7198215177864 60.321263838951836C406.2263716413413 19.354742822579283 584.8976419195898 6.313271256394614 619.7444979551715 152.77883177707395C654.5913539907533 299.24439229775317 573.4912806121333 722.3894333218395 481.9847304885784 763.3559543382123 "></path><path d="M608.1789836070991 165.79041759945653C641.1917945881767 304.5472644085212 564.3601461242208 705.4215137997609 477.66973021769513 744.2319021310614C390.97931431116933 783.0422904623615 225.07779823685252 490.83712839876193 192.06498725577512 352.0802815896974C159.05217627469767 213.32343478063274 232.51782160199804 117.00942577885166 319.2082375085238 78.1990374475514C405.89865341504947 39.38864911625109 575.1661726260218 27.033570790391934 608.1789836070991 165.79041759945653C641.1917945881767 304.5472644085212 564.3601461242208 705.4215137997609 477.66973021769513 744.2319021310614 "></path><path d="M596.6134845178159 178.80206445699542C627.7922504443891 309.85019755444534 555.2290268950974 688.4536553128385 473.3547452056009 725.1079109590665C391.48046351610435 761.7621666052946 234.7956983348052 485.79062465633956 203.61693240823206 354.74249155888947C172.43816648165887 223.6943584614396 241.82238706855372 132.7311277375353 323.69666875805024 96.07687209130722C405.5709504475467 59.42261644507914 565.4347185912427 47.753931359545504 596.6134845178159 178.80206445699542C627.7922504443891 309.85019755444534 555.2290268950974 688.4536553128385 473.3547452056009 725.1079109590665 "></path><path d="M585.0479549109544 191.81371131453432C614.3926757830234 315.1531307003695 546.0978771483959 671.4857968259159 469.0397296759286 705.9839197870718C391.98158220346136 740.4820427482276 244.5135679151797 480.74412091391696 215.16884704311087 357.40470152808166C185.824126171042 234.06528214224647 251.12692201753123 148.45282969621888 328.18506948999857 113.95470673506304C405.2432169624659 79.4565837739072 555.7032340388856 68.47429192869907 585.0479549109544 191.81371131453432C614.3926757830234 315.1531307003695 546.0978771483959 671.4857968259159 469.0397296759286 705.9839197870718 "></path><path d="M573.4824863392494 204.82535817207315C600.9931621568138 320.45606384629366 536.9667884368507 654.5179383389935 464.7247751814125 686.859928615077C392.4827619259745 719.2019188911606 254.23149853071044 475.69761717149436 226.72082271314594 360.06691149727385C199.21014689558137 244.43620582305334 260.43151800166504 164.17453165490247 332.67353125710315 131.83254137881886C404.91554451254126 99.49055110273531 545.9718105216848 89.19465249785264 573.4824863392494 204.82535817207315C600.9931621568138 320.45606384629366 536.9667884368507 654.5179383389935 464.7247751814125 686.859928615077 "></path><path d="M561.916987249966 217.83700502961204C587.5936180130263 325.7589969922178 527.8356692077273 637.550079852071 460.4097901693184 667.7359374430824C392.9839111309095 697.9217950340937 263.94939862866306 470.65111342907176 238.27276786560287 362.72912146646604C212.59613710254263 254.8071295038602 269.7360834682207 179.89623361358605 337.1619625066296 149.71037602257468C404.5878415450385 119.52451843156337 536.2403564869057 109.91501306700621 561.916987249966 217.83700502961204C587.5936180130263 325.7589969922178 527.8356692077273 637.550079852071 460.4097901693184 667.7359374430824 "></path><path d="M550.3514881606827 230.84866714594C574.1940738692387 331.06194539693104 518.7045499786038 620.5822366239377 456.0948051572242 648.6119615298767C393.48506033584454 676.6416864358158 273.66729872661574 465.60462494543845 249.8247130180598 365.3913466944473C225.98212730950388 265.17806844345614 279.04064893477636 195.6179508310587 341.65039375615606 167.58822592511956C404.2601385775357 139.55850101918048 526.5089024521268 130.63538889494885 550.3514881606827 230.84866714594C574.1940738692387 331.06194539693104 518.7045499786038 620.5822366239377 456.0948051572242 648.6119615298767 "></path><path d="M538.7859890713994 243.86029874468977C560.7945297254512 336.36486328406613 509.5734307494805 603.6143628782261 451.7798201451301 629.4879550990929C393.98620954077956 655.3615473199598 283.38519882456836 460.5581059442268 261.37665817051675 368.0535414048503C239.36811751646508 275.54897686547395 288.34521440133204 211.3396375309532 346.1388250056825 185.46604531008637C403.93243561003305 159.59245308921948 516.7774484173478 151.3557342053134 538.7859890713994 243.86029874468977C560.7945297254512 336.36486328406613 509.5734307494805 603.6143628782261 451.7798201451301 629.4879550990929 "></path><path d="M527.2204899821161 256.87194560222866C547.3949855816635 341.6677964299904 500.4423115203572 586.6465043913036 447.4648351330359 610.3639639270982C394.4873587457146 634.0814234628928 293.103098922521 455.5116022018042 272.9286033229737 370.7157513740425C252.75410772342633 285.9199005462808 297.6497798678877 227.0613394896368 350.627256255209 203.3438799538422C403.6047326425303 179.62642041804753 507.0459943825688 172.07609477446698 527.2204899821161 256.87194560222866C547.3949855816635 341.6677964299904 500.4423115203572 586.6465043913036 447.4648351330359 610.3639639270982 "></path><path d="M515.6549756340438 269.88359245976756C533.9954261790868 346.97072957591456 491.3111770324447 569.678645904381 443.1498348621526 591.2399727551035C394.9884926918606 612.8012996058259 302.82098376168454 450.4650984593817 284.48053321664156 373.3779613432347C266.1400826715985 296.2908242270877 306.9543300756543 242.78304144832038 355.11567224594637 221.221714597598C403.27701441623844 199.66038774687559 497.31452508900077 192.79645534362055 515.6549756340438 269.88359245976756C533.9954261790868 346.97072957591456 491.3111770324447 569.678645904381 443.1498348621526 591.2399727551035 "></path><path d="M504.08949180354955 282.89522405851733C520.5958972940883 352.27364746304966 482.1800730621104 552.7107721586694 438.83486510884757 572.1159663243197C395.48965715558467 591.5211604899698 312.5388991184263 445.41857945817003 296.03249362788756 376.0401560536377C279.52608813734884 306.66173264910543 316.25891080099905 258.5047281482149 359.6041187542619 239.09953398256476C402.94932670752473 219.69433981691463 487.5830863130109 213.51680065398506 504.08949180354955 282.89522405851733C520.5958972940883 352.27364746304966 482.1800730621104 552.7107721586694 438.83486510884757 572.1159663243197 "></path><path d="M492.52399271426634 295.9068709160562C507.19635315030075 357.5765806089738 473.0489538329871 535.742913671747 434.51988009675335 552.991975152325C395.99080636051974 570.2410366329029 322.2567992163789 440.37207571574754 307.5844387803445 378.7023660228299C292.9120783443101 317.0326563299123 325.5634762675547 274.2264301068985 364.09255000378835 256.9773686263206C402.621623740022 239.7283071457427 477.8516322782318 234.23716122313863 492.52399271426634 295.9068709160562C507.19635315030075 357.5765806089738 473.0489538329871 535.742913671747 434.51988009675335 552.991975152325 "></path><path d="M480.95852414256115 308.9185177735951C493.7968395240913 362.87951375489797 463.91786512144176 518.7750551848246 430.2049256022373 533.8679839803303C396.4919860830329 548.9609127758359 331.97472983190966 435.32557197332494 319.13641445037956 381.3645759920221C306.2980990688494 327.40358001071917 334.8680722516885 289.94813206558206 368.5810117708929 274.8552032700764C402.29395129009737 259.76227447457075 468.120208761031 254.9575217922922 480.95852414256115 308.9185177735951C493.7968395240913 362.87951375489797 463.91786512144176 518.7750551848246 430.2049256022373 533.8679839803303 "></path><path d="M469.3929945356997 321.9301493723449C480.3972648627256 368.18243164203307 454.78671537474025 501.80718143911304 425.88991007256504 514.7439775495465C396.9931047703898 527.6807736599799 341.69259941228415 430.2790529721134 330.6883290852584 384.02677070242515C319.68405875823254 337.774488432737 344.172607200666 305.66981876547663 373.06941250284126 292.73302265504316C401.9662178050165 279.79622654460974 458.3887242086739 275.6778671026567 469.3929945356997 321.9301493723449C480.3972648627256 368.18243164203307 454.78671537474025 501.80718143911304 425.88991007256504 514.7439775495465 "></path><path d="M457.8275107052055 334.9417962298838C466.997735977727 373.4853647879573 445.65561140440593 484.8393229521905 421.5749403192599 495.61998637755175C397.49426923411386 506.400649802913 351.4105147690259 425.23254922969085 342.2402894965044 386.68898067161734C333.07006422398285 348.14541211354384 353.47718792601074 321.3915207241602 377.5578590111568 310.610857298799C401.6385300963028 299.8301938734378 448.657285432684 296.3982276718103 457.8275107052055 334.9417962298838C466.997735977727 373.4853647879573 445.65561140440593 484.8393229521905 421.5749403192599 495.61998637755175 "></path><path d="M446.26201161592223 347.9534430874226C453.59819183393944 378.78829793388144 436.5244921752826 467.871464465268 417.25995530716574 476.49599520555705C397.99541843904893 485.120525945846 361.1284148669785 420.1860454872683 353.7922346489613 389.3511906408095C346.4560544309441 358.5163357943507 362.78175339256643 337.1132226828438 382.04629026068324 328.48869194255485C401.31082712880004 319.86416120226585 438.925831397905 317.11858824096385 446.26201161592223 347.9534430874226C453.59819183393944 378.78829793388144 436.5244921752826 467.871464465268 417.25995530716574 476.49599520555705 "></path><path d="M434.69649726784985 360.96507468617244C440.1986324313628 384.09121582101653 427.39335768737016 450.9035907195565 412.9449550362825 457.37198877477323C398.4965523851949 463.84038682998994 370.8462997061421 415.1395264860567 365.3441645426292 392.0133853512126C359.8420293791163 368.88724421636846 372.086303600333 352.8349093827383 386.53470625142063 346.3665113275216C400.98310890250826 339.8981132723049 429.19436210433696 337.83893355132835 434.69649726784985 360.96507468617244C440.1986324313628 384.09121582101653 427.39335768737016 450.9035907195565 412.9449550362825 457.37198877477323 "></path><path d="M423.1309829197775 373.97672154371134C426.7990730287861 389.39414896694075 418.2622231994577 433.935732232634 408.62995476539925 438.2479976027785C398.99768633134084 442.560262972923 380.56418454530564 410.09302274363415 376.89609443629706 394.67559532040474C373.22800432728843 379.2581678971753 381.3908538080996 368.5566113414219 391.023122242158 364.2443459712774C400.6553906762164 359.93208060113295 419.4628928107689 358.5592941204819 423.1309829197775 373.97672154371134C426.7990730287861 389.39414896694075 418.2622231994577 433.935732232634 408.62995476539925 438.2479976027785 "></path><path d="M411.56549908928326 386.9883531424611C413.3995441437876 394.69706685407584 409.1311192291234 416.96785848692247 404.31498501209416 419.1239911719947C399.498850795065 421.28012385706694 390.2820999020474 405.04650374242254 388.44805484754306 397.33779003080787C386.61400979303875 389.62907631919313 390.6954345334443 384.2782980413164 395.51156875047354 382.1221653562442C400.3277029675028 379.96603267117194 409.731454034779 379.27963943084643 411.56549908928326 386.9883531424611C413.3995441437876 394.69706685407584 409.1311192291234 416.96785848692247 404.31498501209416 419.1239911719947 "></path></g></svg>