<svg xmlns="http://www.w3.org/2000/svg" version="1.1" xmlns:xlink="http://www.w3.org/1999/xlink" xmlns:svgjs="http://svgjs.dev/svgjs" viewBox="0 0 800 800"><defs><linearGradient x1="50%" y1="0%" x2="50%" y2="100%" id="uundulate-grad"><stop stop-color="hsl(37, 99%, 67%)" stop-opacity="1" offset="45%"></stop><stop stop-color="hsl(316, 73%, 52%)" stop-opacity="1" offset="100%"></stop></linearGradient></defs><g stroke-width="2" stroke="url(#uundulate-grad)" fill="none"><path d="M1199.9166274489994 -130.184555213311C1491.7169386589871 304.39264110387103 1210.1386908192853 1195.41269746343 957.6856026781638 1434.4766820610107C705.2325145370423 1673.5406666585918 279.9421155816035 1451.8997671722568 -11.858195628384124 1017.3225708550749C-303.65850683837164 582.7453745378928 -695.408979270897 -412.42987566388433 -442.9558911297756 -651.4938602614654C-190.50280298865414 -890.5578448590464 908.1163162390121 -564.7617515304928 1199.9166274489994 -130.184555213311C1491.7169386589871 304.39264110387103 1210.1386908192853 1195.41269746343 957.6856026781638 1434.4766820610107 "></path><path d="M1189.52798329813 -123.29899751636958C1477.5386800768192 305.63433910838125 1199.6172925986716 1185.0827064243094 950.4428159918505 1421.0419639491943C701.2683393850291 1657.0012214740796 281.5011923640768 1438.2387752278264 -6.5095044146123655 1009.3054386030763C-294.52020119330155 580.372101978325 -681.1830051526772 -401.8787943247278 -432.008528545856 -637.838051849613C-182.8340519390349 -873.7973093744981 901.5172865194406 -552.2323341411205 1189.52798329813 -123.29899751636958C1477.5386800768192 305.63433910838125 1199.6172925986716 1185.0827064243094 950.4428159918505 1421.0419639491943 "></path><path d="M1179.1395832878852 -116.41353137216265C1463.3606656352758 306.8759455601571 1189.096138518683 1174.7526238324544 943.2002734461619 1407.607154284644C697.3044083736411 1640.4616847368334 283.0605132871747 1424.5776917306625 -1.1605690602158347 1001.2882147983428C-285.38165140760634 577.9987378660228 -666.9567868938324 -391.3278045383056 -421.06092182131147 -624.1823349904948C-175.16505674879056 -857.0368654426843 894.9185009404946 -539.7030083044826 1179.1395832878852 -116.41353137216265C1463.3606656352758 306.8759455601571 1189.096138518683 1174.7526238324544 943.2002734461619 1407.607154284644 "></path><path d="M1168.7509391370154 -109.52797367522123C1449.1824070531075 308.117643564668 1178.5747402980692 1164.4226327933347 935.9574867598487 1394.1724361728284C693.3402332216278 1623.9222395523216 284.61959006964776 1410.9166997862335 4.18812215355581 993.2710825463441C-276.24334576253614 575.625465306455 -652.7308127756125 -380.77672319914893 -410.1135592373919 -610.5265265786425C-167.49630569917122 -840.276329958136 888.3194712209236 -527.1735909151104 1168.7509391370154 -109.52797367522123C1449.1824070531075 308.117643564668 1178.5747402980692 1164.4226327933347 935.9574867598487 1394.1724361728284 "></path><path d="M1158.362417056458 -102.64244649585805C1435.0042705412516 309.3593110516001 1168.053464147768 1154.092611236636 928.7148221438476 1380.7376875434338C689.3761801399273 1607.3827638502316 286.17878892243334 1397.2556773242254 9.536935437639954 985.2539197767671C-267.10491804715343 573.2521622293093 -638.5047165870801 -370.2256723775705 -399.1660745831598 -596.8707486843682C-159.82743257923948 -823.5158249911658 881.7205635716648 -514.6442040433162 1158.362417056458 -102.64244649585805C1435.0042705412516 309.3593110516001 1168.053464147768 1154.092611236636 928.7148221438476 1380.7376875434338 "></path><path d="M1147.973894975901 -95.75701086922925C1420.8261340293957 310.60088698579784 1157.5321879974667 1143.7624981272033 921.4721575278468 1367.3028473613053C685.4121270582266 1590.8431965954069 287.73798777521915 1383.5945633094834 14.885748721724099 977.236665454456C-257.96649033177084 570.8787675994288 -624.2786203985478 -359.67471310872645 -388.2185899289277 -583.2150623428282C-152.15855945930764 -806.75541157693 875.121655922406 -502.11490872425645 1147.973894975901 -95.75701086922925C1420.8261340293957 310.60088698579784 1157.5321879974667 1143.7624981272033 921.4721575278468 1367.3028473613053 "></path><path d="M1137.5854949656564 -88.87142265470982C1406.6481195878528 311.8426155078864 1147.0110339174782 1133.4325376056613 914.2296149821582 1353.8681597670675C681.4481960468386 1574.3037819284732 289.297308698317 1369.9336018826316 20.234684076120743 969.2195637200352C-248.82794054607564 568.5055255574391 -610.052402139703 -349.1236012519918 -377.2709832043831 -569.5592234133976C-144.4895642690634 -789.9948455748035 868.52287034346 -489.58546081730606 1137.5854949656564 -88.87142265470982C1406.6481195878528 311.8426155078864 1147.0110339174782 1133.4325376056613 914.2296149821582 1353.8681597670675 "></path><path d="M1127.1968202972084 -81.98589547534652C1392.4698304881063 313.08428299481875 1136.4896051792864 1123.102516048963 906.9867977782667 1340.4334111376734C677.4839903772472 1557.7643062263837 290.8563549632122 1356.2725794206244 25.583344772314263 961.2024009504587C-239.68966541858367 566.1322224802934 -595.8264585390612 -338.57255043041323 -366.3236511380417 -555.9034455191234C-136.8208437370222 -773.2343406078335 861.9238101063106 -477.0560739455119 1127.1968202972084 -81.98589547534652C1392.4698304881063 313.08428299481875 1136.4896051792864 1123.102516048963 906.9867977782667 1340.4334111376734 "></path><path d="M1116.8083287342295 -75.1004293311396C1378.291724493829 314.32588944659483 1125.968359546563 1112.7724334571085 899.744163679844 1326.998601473123C673.5199678131248 1541.224769489137 292.4155843335757 1342.61149592346 30.93218857397642 953.1851771457254C-230.55120718562284 563.758858367991 -581.6003318329508 -328.02156064399105 -355.3761359662315 -542.2477286600054C-129.15194009951233 -756.4738966760195 855.32493297463 -464.526748108874 1116.8083287342295 -75.1004293311396C1378.291724493829 314.32588944659483 1125.968359546563 1112.7724334571085 899.744163679844 1326.998601473123 "></path><path d="M1106.419776136094 -68.21490215177641C1364.113557464395 315.56755693352716 1115.447052878684 1102.4424119004102 892.501468546265 1313.5638528437285C669.555884213846 1524.6852937870467 293.97475266878337 1328.950473461452 36.28097134048244 945.1680143761484C-221.41280998781826 561.3855552908451 -567.3742661619965 -317.4705098224126 -344.42868182957756 -528.591950765731C-121.48309749715861 -739.7133917090493 848.7259948077933 -451.9973612370799 1106.419776136094 -68.21490215177641C1364.113557464395 315.56755693352716 1115.447052878684 1102.4424119004102 892.501468546265 1313.5638528437285 "></path><path d="M1096.0312540555367 -61.329436007569484C1349.935420952539 316.80916338530324 1104.9257767283827 1092.1123293085554 885.2588039302641 1300.129043179178C665.5918311321454 1508.1457570498005 295.5339515215687 1315.2893899642877 41.62978462456658 937.1507905714157C-212.27438227243567 559.0121911785429 -553.1481699734642 -306.91952003599044 -333.4811971753455 -514.9362339066129C-113.81422437722688 -722.9529477772354 842.1270871585346 -439.468035400442 1096.0312540555367 -61.329436007569484C1349.935420952539 316.80916338530324 1104.9257767283827 1092.1123293085554 885.2588039302641 1300.129043179178 "></path><path d="M1085.6428235277137 -54.443878310628065C1335.7573759934176 318.05086138981346 1094.404592130816 1081.7823382694353 878.0162308669976 1286.6943250673617C661.6278696031791 1491.6063118652883 297.0932419270889 1301.6283980198582 46.9786894613851 929.1336583194166C-203.1358630043186 556.6389186189749 -538.9219822321975 -296.3684386968339 -322.53362096837907 -501.2804254947605C-106.14525970456066 -706.1924122926871 835.5282710620104 -426.9386180110697 1085.6428235277137 -54.443878310628065C1335.7573759934176 318.05086138981346 1094.404592130816 1081.7823382694353 878.0162308669976 1286.6943250673617 "></path><path d="M1075.2542709295788 -47.55832061368676C1321.5792089639835 319.29255939432414 1083.8832854629366 1071.4523472303151 870.7735357334186 1273.2596069555457C657.6637860039004 1475.0668666807765 298.65241026229614 1287.9674060754287 52.32747222789112 921.1165260674181C-193.99746580651401 554.2656460594073 -524.6959165612432 -285.81735735767734 -311.5861668317251 -487.6246170829081C-98.47641710220705 -689.4318768081389 828.9293328951733 -414.40920062169744 1075.2542709295788 -47.55832061368676C1321.5792089639835 319.29255939432414 1083.8832854629366 1071.4523472303151 870.7735357334186 1273.2596069555457 "></path><path d="M1064.8656878138652 -40.672884987057955C1307.4010114169716 320.53413532852187 1073.361948277479 1061.1222341208822 863.5308100822613 1259.8247667734167C653.6996718870435 1458.5272994259522 300.2115480799257 1274.3062920606862 57.676224476819016 913.0992717451065C-184.85909912628767 551.892251429527 -510.4698814078671 -275.2663980888333 -300.6387432126493 -473.9689307413681C-90.80760501743146 -672.6714633939031 822.3303642107585 -401.87990530263767 1064.8656878138652 -40.672884987057955C1307.4010114169716 320.53413532852187 1073.361948277479 1061.1222341208822 863.5308100822613 1259.8247667734167 "></path><path d="M1054.477196250886 -33.78735780769466C1293.222905422694 321.77580281545397 1062.8407026447562 1050.7922125641837 856.2881759838385 1246.390018144023C649.7356493229208 1441.9878237238618 301.7707774502893 1260.6452695986786 63.025068278481285 905.0821089755298C-175.72064089332684 549.5189483523811 -496.24375470175664 -264.71534726725474 -289.6912280408391 -460.3131528470939C-83.1387013799216 -655.9109584269329 815.7314870790781 -389.3505184308435 1054.477196250886 -33.78735780769466C1293.222905422694 321.77580281545397 1062.8407026447562 1050.7922125641837 856.2881759838385 1246.390018144023 "></path><path d="M1044.088704687907 -26.90176959317523C1279.0447994284166 323.01753133754255 1052.3194570120331 1040.462252042642 849.0455418854156 1232.9553305497852C645.7716267587984 1425.4484090569285 303.330006820653 1246.9843081718273 68.37391208014355 897.0650072411092C-166.58218266036602 547.1457063103915 -482.0176279956462 -254.16423541052006 -278.7437128690289 -446.65731391766326C-75.46979774241163 -639.1503924248066 809.1326099473972 -376.8210705238931 1044.088704687907 -26.90176959317523C1279.0447994284166 323.01753133754255 1052.3194570120331 1040.462252042642 849.0455418854156 1232.9553305497852 "></path><path d="M1033.7001520897716 -20.016211896233926C1264.8666323989826 324.259229342053 1041.7981503441536 1030.1322610035215 841.8028467518368 1219.5206124379688C641.8075431595198 1408.9089638724163 304.88917515586047 1233.3233162273973 73.72269484664957 889.0478749891104C-157.44378546256144 544.7724337508234 -467.791562324692 -243.6131540713635 -267.79625873237495 -433.0015055058109C-67.80095514005802 -622.3898569402581 802.5336717805606 -364.29165313452086 1033.7001520897716 -20.016211896233926C1264.8666323989826 324.259229342053 1041.7981503441536 1030.1322610035215 841.8028467518368 1219.5206124379688 "></path><path d="M1023.3116300092142 -13.130806787183246C1250.6884958871267 325.50077475867283 1031.2768741938526 1019.8021173765108 834.5601821358357 1206.0857417382624C637.8434900778191 1392.3693661000134 306.44837400864606 1219.6621716950772 79.07150813073372 881.0305901492213C-148.30535774717885 542.3990086033652 -453.5654661361596 -233.06222532009758 -256.8487740781429 -419.345849681849C-60.13208202012618 -605.6294740436006 795.934764131302 -351.7623883330392 1023.3116300092142 -13.130806787183246C1250.6884958871267 325.50077475867283 1031.2768741938526 1019.8021173765108 834.5601821358357 1206.0857417382624 "></path><path d="M1012.923077411079 -6.245218572663816C1236.510328857693 326.7425032807612 1020.7555675259732 1009.4721568549685 827.3174870022567 1192.651054144024C633.8794064785402 1375.8299514330802 308.0075423438535 1206.0012102682256 84.42029089723962 873.0134884148003C-139.16696054937427 540.0257665613753 -439.33940046520536 -222.5111134633629 -245.90131994148896 -405.6900107524185C-52.46323941777257 -588.8689080414741 789.3358259644651 -339.2329404260888 1012.923077411079 -6.245218572663816C1236.510328857693 326.7425032807612 1020.7555675259732 1009.4721568549685 827.3174870022567 1192.651054144024 "></path><path d="M1002.5345858481 0.6402170539651024C1222.3322228634154 327.98407921495937 1010.2343218932501 999.1420437455358 820.0748529038342 1179.2162139618956C629.9153839144178 1359.2903841782554 309.5667717142172 1192.3400962534834 89.76913469890178 864.9962340924894C-130.02850231641344 537.652371931495 -425.1132737590949 -211.96015419451874 -234.95380476967875 -392.0343244108786C-44.7943357802626 -572.1084946272383 782.7369488327845 -326.70364510702905 1002.5345858481 0.6402170539651024C1222.3322228634154 327.98407921495937 1010.2343218932501 999.1420437455358 820.0748529038342 1179.2162139618956 "></path><path d="M992.1459416972302 7.525683198171919C1208.153964281247 329.225685666735 999.7129236726364 988.8119611536813 812.8320662175206 1165.7814042973453C625.9512087624048 1342.7508474410088 311.1258484966903 1178.6790127563193 95.11782591267342 856.9790102877562C-120.89019667134335 535.2790078191929 -410.8872996408751 -201.40916440809656 -224.00644218575917 -378.3786075517605C-37.12558473064337 -555.3480506954245 776.1379191132135 -314.17431927039115 992.1459416972302 7.525683198171919C1208.153964281247 329.225685666735 999.7129236726364 988.8119611536813 812.8320662175206 1165.7814042973453 "></path><path d="M981.7575416869854 14.411210377535326C1193.9759498397038 330.46735315366755 989.1917695926477 978.481939596983 805.5895236718322 1152.346655667951C621.9872777510166 1326.2113717389188 312.6851694197884 1165.0179902943116 100.46676126707007 848.9618475181794C-111.75164688564814 532.905704742047 -396.66108138203026 -190.85811358651813 -213.05883546121464 -364.7228296574862C-29.456589540399023 -538.5875457284542 769.5391335342672 -301.644932398597 981.7575416869854 14.411210377535326C1193.9759498397038 330.46735315366755 989.1917695926477 978.481939596983 805.5895236718322 1152.346655667951 "></path><path d="M971.3690196064283 21.296737556898393C1179.7978133278482 331.70902064059965 978.6704934423467 968.1519180402845 798.3468590558311 1138.9119070385568C618.0232246693158 1309.671896036829 314.244368272574 1151.3569678323038 105.81557455115421 840.9446847486024C-102.61321917026544 530.532401664901 -382.4349851934979 -180.3070627649397 -202.11135080698256 -351.0670517632119C-21.787716420467177 -521.8270407614841 762.9402258850084 -289.11554552680286 971.3690196064283 21.296737556898393C1179.7978133278482 331.70902064059965 978.6704934423467 968.1519180402845 798.3468590558311 1138.9119070385568 "></path><path d="M960.9804670082931 28.182325771417936C1165.619646298414 332.9507491626882 968.1491867744674 957.8219575187425 791.1041639222522 1125.477219444319C614.0591410700372 1293.1324813698952 315.80353660778155 1137.6960064054522 111.16435731766023 832.9275830141819C-93.47482197246097 528.1591596229114 -368.2089195225436 -169.75595090820502 -191.1638966703286 -337.41121283378135C-14.11887381811357 -505.0664747593577 756.3412877181718 -276.58609761985247 960.9804670082931 28.182325771417936C1165.619646298414 332.9507491626882 968.1491867744674 957.8219575187425 791.1041639222522 1125.477219444319 "></path><path d="M950.5919449277358 35.06782243320299C1151.4415097865583 334.19238613204243 957.6279106241659 947.4919054444658 783.8614993062515 1112.0424402973463C610.0950879883367 1276.592975150227 317.362735460567 1124.0349534258662 116.51317060174438 824.910389727027C-84.33639425707827 525.7858260281873 -353.9828233340113 -159.20493060420472 -180.21641201609657 -323.75546545708517C-6.450000698181839 -488.3060003099656 749.742380068913 -264.05674126563645 950.5919449277358 35.06782243320299C1151.4415097865583 334.19238613204243 957.6279106241659 947.4919054444658 783.8614993062515 1112.0424402973463 "></path><path d="M940.2034533647566 41.953319094988046C1137.2634037922808 335.43402310139663 947.106664991443 937.1618533701896 776.6188652078285 1098.6076611503743C606.1310654242141 1260.0534689305587 318.92196483093073 1110.3739004462805 121.86201440340665 816.8931964398719C-75.1979360241175 523.4124924334633 -339.75669662790085 -148.6539103002043 -169.26889684428636 -310.099718080389C1.2189029393281317 -471.5455258605736 743.1435029372324 -251.52738491142043 940.2034533647566 41.953319094988046C1137.2634037922808 335.43402310139663 947.106664991443 937.1618533701896 776.6188652078285 1098.6076611503743 "></path><path d="M929.8149007666213 48.8388157567731C1123.0852367628468 336.67566007075084 936.5853583235639 926.831801295913 769.3761700742493 1085.1728820034018C602.1669818249352 1243.5139627108904 320.4811331661382 1096.7128474666945 127.21079716991267 808.876003152717C-66.05953882631297 521.0391588387392 -325.5306309569466 -138.102889996204 -158.3214427076324 -296.4439707036928C8.887745541681852 -454.78505141118154 736.5445647703957 -238.9980285572044 929.8149007666213 48.8388157567731C1123.0852367628468 336.67566007075084 936.5853583235639 926.831801295913 769.3761700742493 1085.1728820034018 "></path><path d="M919.4262871333297 55.72431241855827C1108.9070086982567 337.91729704010504 926.0639906205281 916.5017492216366 762.1334139055143 1071.7381028564296C598.2028371905003 1226.9744564912226 322.0402404661894 1083.0517944871085 132.55951890126244 800.8588098655619C-56.921202663664644 518.6658252440152 -311.30462632114865 -127.5518696922037 -147.3740496061347 -282.7882233269966C16.55652710887921 -438.02457696178953 729.9455655684028 -226.4686722029884 919.4262871333297 55.72431241855827C1108.9070086982567 337.91729704010504 926.0639906205281 916.5017492216366 762.1334139055143 1071.7381028564296 "></path><path d="M909.0378566055067 62.609870115499575C1094.7289637391355 339.1589950446154 915.5428060229613 906.1717581825162 754.8908408422476 1058.3033847446134C594.2388756615342 1210.4350113067105 323.59953087170936 1069.3908025426788 137.90842373808096 792.8416776135632C-47.782683395547565 516.2925526844474 -297.0784385798819 -117.00078835304714 -136.4264733991683 -269.1324149151442C24.22549178154543 -421.2640414772412 723.3467494718784 -213.93925481361612 909.0378566055067 62.609870115499575C1094.7289637391355 339.1589950446154 915.5428060229613 906.1717581825162 754.8908408422476 1058.3033847446134 "></path><path d="M898.6492734897934 69.49536677728474C1080.5507661921235 340.40063201396947 905.0214688375038 895.84170610824 747.6481151910905 1044.8686055976411C590.2747615446772 1193.8955050870422 325.1586686893387 1055.729749563093 143.25717598700885 784.8244843264083C-38.644316715321224 513.9192190897234 -282.8524034265058 -106.44976804904672 -125.47904978009245 -255.476667538448C31.89430386632091 -404.5035670278492 716.7477807874634 -201.4098984594001 898.6492734897934 69.49536677728474C1080.5507661921235 340.40063201396947 905.0214688375038 895.84170610824 747.6481151910905 1044.8686055976411 "></path><path d="M888.2607514092363 76.3808634390698C1066.3726296802674 341.6422689833237 894.5001926872028 885.5116540339634 740.4054505750896 1031.4338264506687C586.3107084629764 1177.355998867374 326.7178675421243 1042.068696583507 148.60598927109288 776.8072910392532C-29.50588899993852 511.5458854949993 -268.6263072379735 -95.89874774504642 -114.53156512586037 -241.82092016175181C39.563176986252756 -387.74309257845715 710.1488731382046 -188.88054210518408 888.2607514092363 76.3808634390698C1066.3726296802674 341.6422689833237 894.5001926872028 885.5116540339634 740.4054505750896 1031.4338264506687 "></path><path d="M877.8721377759446 83.26639061843298C1052.1944016156774 342.8839364702559 883.9788249841672 875.1816324772649 733.1626944063544 1017.9990778212743C582.3465638285415 1160.8165231652838 328.2769748421755 1028.407674121499 153.95471100244265 768.7901282696762C-20.367552837290248 509.1725824178534 -254.4003026021755 -85.34769692346799 -103.58417202436266 -228.1651422674775C47.23195855345011 -370.98258761148696 703.5498739362117 -176.35115523338993 877.8721377759446 83.26639061843298C1052.1944016156774 342.8839364702559 883.9788249841672 875.1816324772649 733.1626944063544 1017.9990778212743 "></path><path d="M867.4836462129656 90.15191779779616C1038.0162956213999 344.1256039571881 873.4575793514441 864.8516109205666 725.9200603079316 1004.5643291918802C578.3825412644192 1144.2770474631939 329.8362042125392 1014.7466516594914 159.30355480410492 760.7729655000994C-11.229094604329418 506.79927934070747 -240.17417589606504 -74.79664610188956 -92.6366568525525 -214.5093643732032C54.90086219096008 -354.22208264451683 696.9509968045311 -163.8217683615958 867.4836462129656 90.15191779779616C1038.0162956213999 344.1256039571881 873.4575793514441 864.8516109205666 725.9200603079316 1004.5643291918802 "></path><path d="M857.0951546499864 97.03741445958121C1023.8381896271221 345.3672409265423 862.936333718721 854.52155884629 718.6774262095087 991.1295500449078C574.4185187002965 1127.7375412435256 331.3954335829029 1001.0855986799054 164.6523986057672 752.7557722129445C-2.090636371368646 504.4259457459834 -225.94804918995453 -64.24562579788926 -81.6891416807423 -200.85361699650701C62.56976582846994 -337.46160819512477 690.3521196728507 -151.29241200737982 857.0951546499864 97.03741445958121C1023.8381896271221 345.3672409265423 862.936333718721 854.52155884629 718.6774262095087 991.1295500449078 "></path><path d="M846.7066325694291 103.92291112136638C1009.6600531152665 346.6088778958965 852.4150575684198 844.1915067720138 711.4347615935078 977.6947708979355C570.4544656185958 1111.1980350238575 332.9546324356886 987.4245457003196 170.00121188985122 744.7385789257896C7.047791344014001 502.0526121512594 -211.7219530014222 -53.69460549388896 -70.74165702651021 -187.19786961981083C70.23863894840179 -320.7011337457327 683.7532120235919 -138.76305565316375 846.7066325694291 103.92291112136638C1009.6600531152665 346.6088778958965 852.4150575684198 844.1915067720138 711.4347615935078 977.6947708979355 "></path><path d="M836.318171524028 110.80840778315132C995.4819776385671 347.8505148652506 841.8938424532748 833.8614546977371 704.1921580126632 964.2599917509633C566.4904735720515 1094.658528804189 334.51389232363044 973.7634927207334 175.35008620909161 736.7213856386345C16.186280094552956 499.67927855653534 -197.49579577773363 -43.143585189888654 -59.794111337121876 -173.54212224311465C77.90757310348977 -303.9406592963407 677.1543654094894 -126.23369929894778 836.318171524028 110.80840778315132C995.4819776385671 347.8505148652506 841.8938424532748 833.8614546977371 704.1921580126632 964.2599917509633 "></path><path d="M825.9295884083149 117.69396548009286C981.3037800915547 349.09221286976106 831.3725052678174 823.531463658617 696.9494323615061 950.8252736391471C562.5263594551947 1078.1190836196774 336.0730301412598 960.1025007763042 180.6988384580195 728.7042533866356C25.324646774779353 497.30600599696754 -183.2697606243575 -32.5925038507321 -48.8466877180461 -159.8863138312622C85.57638518826536 -287.1801238117924 670.5553967250744 -113.70428190957551 825.9295884083149 117.69396548009286C981.3037800915547 349.09221286976106 831.3725052678174 823.531463658617 696.9494323615061 950.8252736391471 "></path><path d="M815.5410358101794 124.57952317703416C967.1256130621209 350.3339108742714 820.851198599938 813.2014726194966 689.7067372279271 937.3905555273311C558.5622758559158 1061.5796384351654 337.63219847646724 946.4415088318742 186.04762122452553 720.687121134637C34.46304397258393 494.93273343739975 -169.0436949534033 -22.041422511575433 -37.89923358139214 -146.23050541940978C93.24522779061897 -270.4195883272441 663.9564585582377 -101.17486452020324 815.5410358101794 124.57952317703416C967.1256130621209 350.3339108742714 820.851198599938 813.2014726194966 689.7067372279271 937.3905555273311 "></path><path d="M805.1525137296221 131.46501983881922C952.9474765502653 351.5755478436256 810.3299224496368 802.8714205452204 682.464072611926 923.9557763803589C554.5982227742152 1045.0401322154974 339.1913973292528 932.7804558522885 191.39643450860967 712.6699278474821C43.60147168796658 492.5593998426757 -154.81759876487092 -11.49040220757513 -26.951748927160054 -132.5747580427136C100.91410091055081 -253.65911387785206 657.3575509089792 -88.64550816598722 805.1525137296221 131.46501983881922C952.9474765502653 351.5755478436256 810.3299224496368 802.8714205452204 682.464072611926 923.9557763803589 "></path><path d="M794.7640221666431 138.35051650060427C938.7693705559877 352.8171848129797 799.8086768169139 792.5413684709438 675.2214385135035 910.5209972333862C550.6342002100927 1028.5006259958288 340.75062669961653 919.1194028727023 196.74527831027194 704.6527345603272C52.73992992092735 490.18606624795154 -140.59147205876047 -0.9393819035748265 -16.0042337553499 -118.91901066601741C108.58300454806067 -236.89863942846 650.7586737772986 -76.1161518117712 794.7640221666431 138.35051650060427C938.7693705559877 352.8171848129797 799.8086768169139 792.5413684709438 675.2214385135035 910.5209972333862 "></path><path d="M784.375530603664 145.23601316238933C924.59126456171 354.058821782334 789.2874311841908 782.2113163966674 667.9788044150805 897.0862180864142C546.6701776459702 1011.9611197761608 342.3098560699801 905.4583498931167 202.0941221119342 696.6355412731721C61.87838815388818 487.8127326532275 -126.36534535265002 9.611638400425534 -5.056718583539691 -105.26326328932123C116.25190818557064 -220.138164979068 644.1597966456179 -63.58679545755518 784.375530603664 145.23601316238933C924.59126456171 354.058821782334 789.2874311841908 782.2113163966674 667.9788044150805 897.0862180864142 "></path><path d="M773.9869474879506 152.12150982417438C910.4130670146978 355.300458751688 778.7660939987334 771.8812643223907 660.7360787639234 883.6514389394417C542.7060635291133 995.4216135564925 343.8689938876096 891.7972969135308 207.4428743608621 688.6183479860169C71.01675483411458 485.43939905850345 -112.1393101992739 20.162658704425837 5.890705035536143 -91.60751591262505C123.92072027034618 -203.37769052967593 637.5608279612029 -51.05743910333916 773.9869474879506 152.12150982417438C910.4130670146978 355.300458751688 778.7660939987334 771.8812643223907 660.7360787639234 883.6514389394417 "></path><path d="M763.5984254073933 159.0070675211158C896.2349305028422 356.54215675619844 768.2448178484324 761.5512732832706 653.4934141479225 870.2167208276257C538.7420104474127 978.8821683719809 345.42819274039516 878.1363049691013 212.79168764494625 680.6012157340183C80.15518254949723 483.0661264989358 -97.91321401074151 30.713740043582447 16.838189689768228 -77.95170750077261C131.58959339027797 -186.61715504512767 630.9619203119444 -38.52802171396689 763.5984254073933 159.0070675211158C896.2349305028422 356.54215675619844 768.2448178484324 761.5512732832706 653.4934141479225 870.2167208276257 "></path><path d="M753.209903326836 165.89256418290086C882.0567939909865 357.78379372555264 757.7235416981312 751.2212212089942 646.2507495319215 856.7819416806533C534.777957365712 962.3426621523124 346.98739159318075 864.4752519895151 218.14050092903028 672.5840224468634C89.29361026487993 480.6927929042116 -83.68711782220919 41.26476034758275 27.785674344000256 -64.29596012407643C139.25846651020976 -169.8566805957356 624.3630126626857 -25.998665359750873 753.209903326836 165.89256418290086C882.0567939909865 357.78379372555264 757.7235416981312 751.2212212089942 646.2507495319215 856.7819416806533 "></path><path d="M742.8213202111224 172.7780303271079C867.8785964439744 359.0254001773286 747.2022045126737 740.8911386171394 639.0080238807644 843.3471320161027C530.8138432488552 945.803125415066 348.5465294108101 850.814168492351 223.48925317795818 664.5667986421302C98.43197694510633 478.31942879190933 -69.46108266883311 51.81575013400493 38.73309796307609 -50.64024326495837C146.9272785949853 -153.09623666392167 617.7640439782708 -13.469339523112978 742.8213202111224 172.7780303271079C867.8785964439744 359.0254001773286 747.2022045126737 740.8911386171394 639.0080238807644 843.3471320161027 "></path><path d="M732.4328896832999 179.66355750647108C853.7005514848529 360.26706766426094 736.6810199151068 730.5611170604411 631.7654508174978 829.9123833867084C526.8498817198889 929.2636497129761 350.10581981633004 837.1531460303431 228.8381580147767 656.5496358725532C107.57049621322335 475.9461257147635 -55.23489492756636 62.36680095558336 49.68067417004255 -36.98446537068406C154.59624326765146 -136.33573169695154 611.1652278817464 -0.9399526513188334 732.4328896832999 179.66355750647108C853.7005514848529 360.26706766426094 736.6810199151068 730.5611170604411 631.7654508174978 829.9123833867084 "></path><path d="M722.0443370851644 186.54911520341238C839.5223844554193 361.5087656687713 726.1597132472275 720.231126021321 624.5227556839187 816.4776652748926C522.8857981206102 912.7242045284643 351.6649881515375 823.4921540859136 234.18694078128271 648.5325036205545C116.70889341102793 473.57285315519573 -41.00882925661216 72.91788229473997 60.62812830669645 -23.32865695883163C162.26508587000512 -119.57519621240323 604.5662897149095 11.589464738053437 722.0443370851644 186.54911520341238C839.5223844554193 361.5087656687713 726.1597132472275 720.231126021321 624.5227556839187 816.4776652748926 "></path><path d="M711.6558150046071 193.43461186519744C825.3442479435635 362.7504026381255 715.6384370969263 709.9010739470446 617.2800910679179 803.0428861279202C518.9217450389095 896.1846983087958 353.2241870043231 809.8311011063277 239.53575406536686 640.5153103333996C125.84732112641058 471.1995195604717 -26.78273306807978 83.46890259874027 71.57561296092854 -9.672909582135446C169.9339589899369 -102.81472176301122 597.967382065651 24.118821092269457 711.6558150046071 193.43461186519744C825.3442479435635 362.7504026381255 715.6384370969263 709.9010739470446 617.2800910679179 803.0428861279202 "></path><path d="M701.2672013713157 200.3201085269825C811.1660198789732 363.9920396074797 705.1170693938907 699.5710218727679 610.0373348991827 789.6081069809479C514.9576004044745 879.6451920891277 354.7832943043743 796.1700481267417 244.88447579671652 632.4981170462447C134.9856572890589 468.8261859657475 -12.55672843228183 94.01992290274063 82.52300606242625 3.982837794560737C177.60274055713433 -86.05424731361916 591.3683828636579 36.64817744648548 701.2672013713157 200.3201085269825C811.1660198789732 363.9920396074797 705.1170693938907 699.5710218727679 610.0373348991827 789.6081069809479 "></path><path d="M690.8787708434927 207.20560518876766C796.9879749198519 365.2336765768338 694.5958847963238 689.2409697984915 602.7947618359161 776.1733278339755C510.9936388755083 863.1056858694594 356.34258470989425 782.5089951471559 250.23338063353503 624.4809237590897C144.12417655717593 466.4528523710235 1.6694593089848695 104.57094320674094 93.47058226939271 17.63858517125692C185.2717052298005 -69.29377286422715 584.7695667671336 49.1775338007015 690.8787708434927 207.20560518876766C796.9879749198519 365.2336765768338 694.5958847963238 689.2409697984915 602.7947618359161 776.1733278339755 "></path><path d="M680.4902487629356 214.09110185055272C782.809838407996 366.47531354618786 684.0746086460227 678.9109177242149 595.5520972199151 762.7385486870032C507.02958579380766 846.5661796497914 357.90178356267984 768.8479421675697 255.58219391761918 616.4637304719347C153.26260427255858 464.07951877629944 15.89555549751725 115.12196351074124 104.41806692362474 31.294332547953104C192.94057834973228 -52.53329841483509 578.170659117875 61.70689015491752 680.4902487629356 214.09110185055272C782.809838407996 366.47531354618786 684.0746086460227 678.9109177242149 595.5520972199151 762.7385486870032 "></path><path d="M670.1017266823783 220.97665954749402C768.6317018961404 367.7170115506983 673.5533324957215 668.5809266850948 588.3094326039143 749.303830575187C503.06553271210703 830.0267344652793 359.4609824154654 755.1869502231402 260.9310072017033 608.4465982199359C162.40103198794122 461.70624621673164 30.121651686049574 125.67304484989785 115.36555157785682 44.95014095980554C200.60945146966407 -35.772762930286774 571.5717514686162 74.23630754428979 670.1017266823783 220.97665954749402C768.6317018961404 367.7170115506983 673.5533324957215 668.5809266850948 588.3094326039143 749.303830575187 "></path><path d="M659.7131435666648 227.86221724443544C754.4535043491284 368.95870955520877 663.031995310264 658.2509356459746 581.0667069527572 735.869112463371C499.10141859525015 813.4872892807675 361.02012023309476 741.5259582787105 266.2797594506312 600.4294659679372C171.53939866816768 459.33297365716385 44.347686839425705 136.2241261890544 126.31297519693265 58.60594937165797C208.2782635544396 -19.012227445738517 564.9727827842014 86.76572493366206 659.7131435666648 227.86221724443544C754.4535043491284 368.95870955520877 663.031995310264 658.2509356459746 581.0667069527572 735.869112463371 "></path><path d="M649.3246214861076 234.7477139062205C740.2753678372727 370.20034652456286 652.5107191599628 647.9208835716981 573.8240423367562 722.4343333163988C495.1373655135495 796.9477830610992 362.57931908588034 727.8649052991245 271.62857273471536 592.4122726807823C180.67782638355033 456.9596400624398 58.57378302795803 146.77514649305476 137.26045985116474 72.26169674835415C215.9471366743714 -2.251752996346454 558.3738751349426 99.29508128787808 649.3246214861076 234.7477139062205C740.2753678372727 370.20034652456286 652.5107191599628 647.9208835716981 573.8240423367562 722.4343333163988 "></path><path d="M638.9360688879723 241.63321056800555C726.0972008078387 371.44198349391695 641.9894124920836 637.5908314974215 566.5813472031772 708.9995541694262C491.1732819142708 780.408276841431 364.1384874210878 714.2038523195386 276.9773555012213 584.3950793936272C189.81622358135485 454.58630646771576 72.79984869891223 157.32616679705507 148.20791398781864 85.91744412505034C223.61597927672506 14.50872145304561 551.7749369681059 111.8244376420941 638.9360688879723 241.63321056800555C726.0972008078387 371.44198349391695 641.9894124920836 637.5908314974215 566.5813472031772 708.9995541694262 "></path><path d="M628.5475773249932 248.51873774736873C711.9190948135611 372.6836509808493 631.4681668593605 627.2608099407231 559.3387131047543 695.564805540032C487.2092593501483 763.868801139341 365.6977167914515 700.5428298575308 282.3261993028836 576.3779166240504C198.95468181431568 452.21300339056984 87.02597540502273 167.8772176186335 159.15542915962885 99.57322201932459C231.28488291423497 31.26922642001574 545.1760598364253 124.35382451388824 628.5475773249932 248.51873774736873C711.9190948135611 372.6836509808493 631.4681668593605 627.2608099407231 559.3387131047543 695.564805540032 "></path><path d="M618.1591162795921 255.40420389157566C697.7410193368617 373.92525743262536 620.9469517442155 616.9307273488686 552.0961095239097 682.1299958754817C483.2452673036039 747.3292644020945 367.25697667939335 686.8817463603667 287.67507362212393 568.3606928193173C208.09317056485457 449.83963927826767 101.25213262871131 178.42820740505567 170.1029748490172 113.2289388784427C238.953817069323 48.02967035182962 538.5772132223228 136.88315035052614 618.1591162795921 255.40420389157566C697.7410193368617 373.92525743262536 620.9469517442155 616.9307273488686 552.0961095239097 682.1299958754817 "></path><path d="M607.7705331638788 262.2897615885171C683.5628217898495 375.1669554371357 610.4256145587581 606.6007363097483 544.8533838727526 668.6952777636656C479.2811531867469 730.7898192175827 368.8161144970227 673.2207544159371 293.0238258710518 560.3435605673185C217.23153724508103 447.4663667186999 115.47816778208744 188.97928874421228 181.05039846809302 126.88474729029508C246.62262915409855 64.79020583637794 531.9782445379079 149.4125677398984 607.7705331638788 262.2897615885171C683.5628217898495 375.1669554371357 610.4256145587581 606.6007363097483 544.8533838727526 668.6952777636656 "></path><path d="M597.3820110833216 269.17525825030214C669.3846852779939 376.4085924064898 599.904338408457 596.2706842354719 537.6107192567517 655.2604986166931C475.3171001050464 714.2503129979144 370.37531334980827 659.5597014363511 298.37263915513597 552.3263672801636C226.36996496046368 445.09303312397583 129.70426397061976 199.5303090482126 191.99788312232505 140.54049466699126C254.29150227403034 81.55068028577 525.3793368886493 161.94192409411443 597.3820110833216 269.17525825030214C669.3846852779939 376.4085924064898 599.904338408457 596.2706842354719 537.6107192567517 655.2604986166931 "></path><path d="M586.9934890027644 276.0607549120872C655.206548766138 377.650229375844 589.3830622581557 585.9406321611954 530.3680546407508 641.8257194697209C471.35304702334565 697.7108067782463 371.93451220259385 645.8986484567654 303.7214524392201 544.3091739930085C235.50839267584638 442.7196995292518 143.9303601591521 210.08132935221295 202.94536777655713 154.19624204368745C261.9603753939622 98.311154735162 518.7804292393905 174.47128044833045 586.9934890027644 276.0607549120872C655.206548766138 377.650229375844 589.3830622581557 585.9406321611954 530.3680546407508 641.8257194697209 "></path><path d="M576.604951663418 282.9462820914504C641.0283969954933 378.8918968627763 578.8617708490656 575.6106106044971 523.1253747659607 628.3909708403266C467.3889786828561 681.1713310761562 373.4936957965904 632.2376259947575 309.07025046451514 536.2920112234317C244.64680513243997 440.34639645210586 158.1564410888954 220.63238017379138 213.89283717200016 167.85201993796176C269.62923325510485 115.0716597021322 512.1815063313429 187.00066732012453 576.604951663418 282.9462820914504C641.0283969954933 378.8918968627763 578.8617708490656 575.6106106044971 523.1253747659607 628.3909708403266 "></path><path d="M566.21644484165 289.83177875323554C626.8502757424264 380.1335338321305 568.3405099575534 565.2805585302206 515.8827254087489 614.9561916933542C463.4249408599444 664.631824856488 375.052909908165 618.5765730151716 314.41907900738835 528.2748179362766C253.78524810661168 437.9730628573818 172.3825525362168 231.18340047779168 224.84033708502125 181.50776731465794C277.29812163382576 131.8321341515242 505.5826139408732 199.53002367434055 566.21644484165 289.83177875323554C626.8502757424264 380.1335338321305 568.3405099575534 565.2805585302206 515.8827254087489 614.9561916933542 "></path><path d="M555.8279227610926 296.7173059325987C612.6721392305708 381.37520131906274 557.8192338072522 554.9505369735223 508.64006079274805 601.5214430639601C459.4608877782439 648.0923491543979 376.6121087609506 604.9155505531638 319.7678922914725 520.2576551666998C262.9236758219944 435.5997597802359 186.60864872474917 241.7344512993701 235.78782173925333 195.16354520893225C284.9669947537575 148.5926391184944 498.98370629161457 212.0594105461347 555.8279227610926 296.7173059325987C612.6721392305708 381.37520131906274 557.8192338072522 554.9505369735223 508.64006079274805 601.5214430639601 "></path><path d="M545.4393854217464 303.60280259438383C598.493987459926 382.61683828841683 547.2979423981619 544.6204848992458 501.3973809179581 588.0866639169877C455.4968194377541 631.5528429347297 378.1712923549471 591.254497573578 325.1166903167675 512.2404618795449C272.06208827858796 433.22642618551174 200.83472965449243 252.28547160337047 246.73529113469635 208.81929258562843C292.6358526149003 165.35311356788645 492.38478338356686 224.58876690035072 545.4393854217464 303.60280259438383C598.493987459926 382.61683828841683 547.2979423981619 544.6204848992458 501.3973809179581 588.0866639169877 "></path><path d="M535.050832823611 310.488329773747C584.3158204304921 383.85850577534916 536.7766357302826 534.2904633425474 494.154685784379 574.6519152875935C451.53273583847545 615.0133672326397 379.7304606901546 577.5934751115701 330.46547308327354 504.2232991099679C281.2004854763925 430.8531231083658 215.0607953254467 262.83652242494895 257.6827452713503 222.47507047990274C300.3046952172539 182.11361853485658 485.78584521672997 237.11815377214486 535.050832823611 310.488329773747C584.3158204304921 383.85850577534916 536.7766357302826 534.2904633425474 494.154685784379 574.6519152875935 "></path><path d="M524.6623260018429 317.37385695311025C570.1376991774255 385.1001732622815 526.2553748387704 523.9604417858491 486.9120364271671 561.2171666581994C447.56869801556377 598.4738915305496 381.28967480172923 563.9324526495623 335.81430162614674 496.20613634039114C290.33892845056425 428.4798200312199 229.28690677276808 273.3875732465274 268.6302451843714 236.13084837417705C307.9735835959748 198.87412350182677 479.1869528262604 249.647540643939 524.6623260018429 317.37385695311025C570.1376991774255 385.1001732622815 526.2553748387704 523.9604417858491 486.9120364271671 561.2171666581994 "></path><path d="M514.2738039212857 324.2593536148953C555.9595626655696 386.3418102316356 515.7340986884693 513.6303897115724 479.66937181116623 547.782387511227C443.60464493386326 581.9343853108815 382.8488736545148 550.2713996699763 341.1631149102309 488.18894305323613C299.4773561659469 426.10648643649586 243.5130029613004 283.9385935505277 279.5777298386035 249.78659575087323C315.6424567159066 215.63459795121884 472.58804517700173 262.17689699815503 514.2738039212857 324.2593536148953C555.9595626655696 386.3418102316356 515.7340986884693 513.6303897115724 479.66937181116623 547.782387511227 "></path><path d="M503.88528184072845 331.14488079425854C541.7814261537138 387.58347771856785 505.2128225381681 503.30036815487415 472.42670719516536 534.3476388818328C439.6405918521625 565.3949096087913 384.4080725073004 536.6103772079686 346.511928194315 480.17178028365925C308.61578388132955 423.73318335934994 257.7390991498328 294.4896443721061 290.5252144928356 263.44237364514754C323.31132983583836 232.39510291818897 465.98913752774297 274.7062838699492 503.88528184072845 331.14488079425854C541.7814261537138 387.58347771856785 505.2128225381681 503.30036815487415 472.42670719516536 534.3476388818328 "></path><path d="M493.4967445013822 338.0303774560436C527.603274383069 388.825114687922 494.69153112907793 492.97031608059774 465.18402732037544 520.9128597348604C435.6765235116728 548.8554033891231 385.9672561012969 522.9493242283827 351.86072621961006 472.15458699650424C317.7541963379232 421.3598497646259 271.96518007957604 305.0406646761065 301.47268388827854 277.0981210218437C330.9801876969811 249.15557736758103 459.39021461969526 287.2356402241652 493.4967445013822 338.0303774560436C527.603274383069 388.825114687922 494.69153112907793 492.97031608059774 465.18402732037544 520.9128597348604 "></path><path d="M483.1082071620359 344.91590463540683C513.4251226124242 390.0667821748543 484.17023971998765 482.64029452389934 457.9413474455854 507.47811110546616C431.71245517118314 532.3159276870331 387.52643969529345 509.28830176637484 357.2095242449051 464.13742422692735C326.8926087945168 418.98654668748 286.19126100931936 315.5917154976849 312.42015328372156 290.75389891611803C338.6490455581238 265.91608233455116 452.79129171164755 299.76502709595934 483.1082071620359 344.91590463540683C513.4251226124242 390.0667821748543 484.17023971998765 482.64029452389934 457.9413474455854 507.47811110546616 "></path><path d="M472.7196850814787 351.8014012971919C499.2469861005684 391.3084191442084 473.64896356968643 472.3102424496228 450.6986828295845 494.0433319584938C427.7484020894825 515.7764214673648 389.08563854807903 495.627248786789 362.5583375289892 456.12023093977245C336.0310365098994 416.61321309275587 300.4173571978517 326.14273580168526 323.36763793795365 304.4096462928142C346.3179186780556 282.6765567839432 446.1923840623889 312.29438345017536 472.7196850814787 351.8014012971919C499.2469861005684 391.3084191442084 473.64896356968643 472.3102424496228 450.6986828295845 494.0433319584938 "></path><path d="M462.3311324833433 358.686897958977C485.0688190711346 392.5500561135626 463.1276569018071 461.9801903753464 443.4559876960054 480.6085528115216C423.78431849020376 499.23691524769674 390.6448068832865 481.966195807203 367.90712029549525 448.10303765261745C345.169433707704 414.2398794980318 314.64342286880594 336.69375610568557 334.3150920746076 318.0653936695104C353.98676128040927 299.43703123333523 439.59344589555207 324.8237398043914 462.3311324833433 358.686897958977C485.0688190711346 392.5500561135626 463.1276569018071 461.9801903753464 443.4559876960054 480.6085528115216 "></path><path d="M451.9426409203642 365.5724251383402C470.8907130768569 393.79172360049483 452.60641126908405 451.650168818648 436.2133535975827 467.17380418212736C419.82029592608126 482.6974395456066 392.2040362536502 468.3051733451952 373.2559640971575 440.08587488304056C354.3078919406648 411.8665764208859 328.8695495749164 347.244806927264 345.26260724641776 331.7211715637847C361.6556649179192 316.1975362003054 432.9945687638715 337.3531266761855 451.9426409203642 365.5724251383402C470.8907130768569 393.79172360049483 452.60641126908405 451.650168818648 436.2133535975827 467.17380418212736 "></path><path d="M441.554118839807 372.4579523177034C456.71257656500114 395.03339108742716 442.0851351187829 441.32014726194967 428.97068898158176 453.7390555527331C415.85624284438063 466.15796384351654 393.7632351064358 454.6441508831874 378.6047773812416 432.0687121134637C363.4463196560475 409.49327334374 343.0956457634487 357.7958577488425 356.21009190064984 345.376949458059C369.32453803785097 332.9580411672756 426.39566111461284 349.88251354797967 441.554118839807 372.4579523177034C456.71257656500114 395.03339108742716 442.0851351187829 441.32014726194967 428.97068898158176 453.7390555527331 "></path><path d="M431.1655662416716 379.34344897948847C442.5344095355673 396.2750280567813 431.56382845090354 430.9900951876732 421.7279938480027 440.3042764057608C411.8921592451019 449.61845762384837 395.32240344164325 440.9830979036015 383.9535601477476 424.0515188263087C372.584716853852 407.11993974901594 357.32171143440297 368.3468780528428 367.1575460373038 359.0326968347552C376.99338064020463 349.7185156166676 419.79672294777606 362.4118699021957 431.1655662416716 379.34344897948847C442.5344095355673 396.2750280567813 431.56382845090354 430.9900951876732 421.7279938480027 440.3042764057608 "></path><path d="M420.7770594199035 386.2289761588517C428.3562882825006 397.5166955437136 421.04256755939144 420.6600736309748 414.4853444907909 426.86952777636657C407.9281214221903 433.07898192175827 396.8816175532179 427.3220754415937 389.30238869062083 416.03435605673184C381.7231598280237 404.74663667186996 371.54782288172436 378.8979288744212 378.10504595032495 372.6884747290295C384.6622690189255 366.4790205836378 413.1978305573064 374.94125677398983 420.7770594199035 386.2289761588517C428.3562882825006 397.5166955437136 421.04256755939144 420.6600736309748 414.4853444907909 426.86952777636657 "></path><path d="M410.3885220805572 393.1144880794258C414.17813651185577 398.7583477718568 410.52127615030116 410.3300368154874 407.2426646160009 413.4347638881833C403.9640530817006 416.5394909608791 398.4408011472144 413.66103772079686 394.65118671591586 408.01717802836595C390.86157228461735 402.373318335935 385.7739038114677 389.44896443721063 389.0525153457679 386.34423736451475C392.3311268800682 383.2395102918189 406.59890764925865 387.4706283869949 410.3885220805572 393.1144880794258C414.17813651185577 398.7583477718568 410.52127615030116 410.3300368154874 407.2426646160009 413.4347638881833 "></path></g></svg>