<?xml version="1.0" encoding="UTF-8"?>
<svg id="Calque_1" data-name="Calque 1" xmlns="http://www.w3.org/2000/svg" xmlns:xlink="http://www.w3.org/1999/xlink" viewBox="0 0 510.4 509.69">
  <defs>
    <style>
      .cls-1 {
        fill: url(#Dégradé_sans_nom_30);
      }
    </style>
    <linearGradient id="Dégradé_sans_nom_30" data-name="Dégradé sans nom 30" x1="1.01" y1="254.84" x2="510.88" y2="254.84" gradientUnits="userSpaceOnUse">
      <stop offset="0" stop-color="#ea4d72"/>
      <stop offset=".39" stop-color="#ea5850"/>
      <stop offset=".77" stop-color="#eb6134"/>
      <stop offset="1" stop-color="#ec652a"/>
      <stop offset="1" stop-color="#fff"/>
    </linearGradient>
  </defs>
  <path class="cls-1" d="m252.11,0c2.8,0,5.6,0,8.4,0,1.51.16,3.02.37,4.54.46,5.38.32,10.79.36,16.14.95,7.13.79,14.24,1.82,21.31,3.05,18.02,3.14,35.43,8.38,52.26,15.53,45.5,19.31,82.49,49.22,110.71,89.78,27.82,39.97,42.68,84.47,45.13,133.09.46,9.05.37,18.11-.19,27.17-.63,10.25-1.8,20.42-3.62,30.53-3.88,21.61-10.43,42.39-19.82,62.23-21.63,45.71-53.9,82.06-96.83,108.78-36.77,22.89-76.95,35.25-120.15,37.71-10.11.58-20.24.62-30.35-.28-6.62-.59-13.24-1.21-19.84-2.03-9.44-1.16-18.74-3.14-27.93-5.57-49.03-12.96-90.61-38.27-124.66-75.79-27.53-30.33-46.49-65.42-57.14-104.99-3.21-11.91-5.52-24.01-6.86-36.27-.71-6.48-.97-13.02-1.48-19.52-.15-1.91-.47-3.81-.71-5.72,0-2.8,0-5.6,0-8.4.27-2.5.68-5,.8-7.51.49-11.06,1.7-22.03,3.62-32.94,3.75-21.29,10.04-41.8,19.16-61.39,23.85-51.25,60.58-90.57,110.07-117.85,28.94-15.95,59.99-25.51,92.8-29.26,6.67-.76,13.38-1.34,20.11-1.33,1.52,0,3.03-.29,4.55-.44Zm-59.99,29.85c-.41.28-.69.45-.94.66-6.78,5.79-13.58,11.55-20.34,17.37-6.79,5.85-6.79,5.8-14.08,8.28-18.79,6.42-31.7,19.06-39.15,37.36-2.48,6.09-3.77,12.48-4.24,19.03-.08,1.18-.52,1.84-1.51,2.3-.36.17-.69.4-1.04.59-13.71,7.82-27.42,15.63-41.13,23.46-3.64,2.08-7.38,4.03-10.87,6.34-5.89,3.9-6.67,12.18-1.75,17.25,1,1.03,2.25,1.88,3.51,2.6,8.13,4.69,16.3,9.33,24.45,13.98,8.79,5.01,17.58,10.05,26.39,15.01,1.29.73,2.13,1.49,1.83,3.09-.11.58-.02,1.2-.02,1.8,0,47.78.02,95.56-.01,143.34,0,13.31,2.02,26.28,6.33,38.85,8.19,23.9,22.53,43.34,42.92,58.27,10.34,7.58,21.69,13.17,33.87,17.17,9.84,3.23,19.99,4.44,30.24,4.83,11.45.44,22.91.7,34.37.78,22.32.16,44.64.24,66.93-1.11,5.17-.31,10.35-.92,15.43-1.85,9.14-1.68,17.82-4.89,26.16-8.96,21.28-10.39,38.08-25.72,50.32-45.99,11.35-18.81,16.87-39.28,17.06-61.2.07-8.26.05-16.53-.02-24.79-.01-1.5.48-2.46,1.63-3.36,3.27-2.56,6.14-5.54,8.55-8.92,9.07-12.72,12.87-26.75,10.24-42.3-.47-2.8-.99-5.62-2.32-8.35-5.85,1.89-11.62,3.75-17.59,5.68-.6-12.01-3.9-22.85-10.64-32.67-.64.37-1.11.61-1.54.89-10.69,7.02-21.37,14.03-32.05,21.06-9.4,6.19-18.8,12.39-28.18,18.61-.93.62-1.87.89-2.98.89-40.31-.02-80.63-.01-120.94-.02-.64,0-1.28-.08-2.15-.14v-3.13c0-49.18.02-98.36-.03-147.53,0-3.65-.21-7.34-.73-10.95-2.15-14.8-8.59-27.46-19.37-37.87-.38-.36-.72-.76-1.19-1.24,3.57-5.66,6.17-11.68,6.87-18.35.71-6.71.08-13.25-2.81-19.7-7.72,3.01-15.3,5.96-22.93,8.93-1.81-3.7-3.75-7.02-6.57-9.99Z"/>
</svg>