<?xml version="1.0" encoding="UTF-8"?>
<svg id="Calque_1" data-name="Calque 1" xmlns="http://www.w3.org/2000/svg" viewBox="0 0 734.09 292.9">
  <defs>
    <style>
      .cls-1 {
        fill: #ec652a;
      }
    </style>
  </defs>
  <path class="cls-1" d="m699.31,3.01v136.17h-1.19c-7.22-10.88-14.38-20.95-21.18-30.15L594.61,3.01h-43.19l97.54,119.85-80.18,124.04L489.43,3.01h-48.92l-23.33,93.26-35.97,137.99c-4.12-27.46-10.62-57.73-17.48-87.95L330.98,3.01h-36.39l-35.97,142.49c-9.19,36.47-17.6,69.99-21.95,98.08h-.83c-4.77-27.27-11.99-62.49-19.99-97.64L183.87,3.01h-44.38L57.15,109.03c-6.8,9.2-13.96,19.27-21.18,30.15h-1.19V3.01H0v282.48h34.78v-107.71l25.59-31.02,88.71,138.74h41.16L85.13,122.85l70.16-86.19,60.19,248.83h36.33l38.42-147.12c9.96-36.47,15.99-64.11,20.76-92.2h.78c3.64,28.52,9.19,56.17,17.6,92.2l34,147.12h46.41l22.01-88.88h83.64l28.64,88.51-.24.38h41.16l88.71-138.74,25.59,31.02v107.71h34.78V3.01h-34.78Zm-260.29,165.13l31.32-132.86,37.88,132.86h-69.2Z"/>
</svg>