<?xml version="1.0" encoding="UTF-8"?>
<svg id="Calque_1" data-name="Calque 1" xmlns="http://www.w3.org/2000/svg" xmlns:xlink="http://www.w3.org/1999/xlink" viewBox="0 0 565.06 509.69">
  <defs>
    <style>
      .cls-1 {
        fill: none;
        stroke: url(#Dégradé_sans_nom_29);
        stroke-miterlimit: 10;
        stroke-width: 3px;
      }
    </style>
    <linearGradient id="Dégradé_sans_nom_29" data-name="Dégradé sans nom 29" x1="50.58" y1="254.61" x2="457.82" y2="254.61" gradientUnits="userSpaceOnUse">
      <stop offset="0" stop-color="#fff"/>
      <stop offset="0" stop-color="#ec652a"/>
      <stop offset="1" stop-color="#ea4d72"/>
    </linearGradient>
  </defs>
  <path class="cls-1" d="m190.35,38.61c2.82,2.98,4.75,6.3,6.57,9.99,7.64-2.97,15.21-5.92,22.93-8.93,2.9,6.45,3.52,12.99,2.81,19.7-.7,6.68-3.3,12.69-6.87,18.35.46.49.81.88,1.19,1.24,10.78,10.41,17.22,23.07,19.37,37.87.52,3.61.73,7.3.73,10.95.05,49.18.03,98.36.03,147.53v3.13c.87.06,1.51.14,2.15.14,40.31,0,80.63,0,120.94.02,1.11,0,2.05-.27,2.98-.89,9.38-6.22,18.78-12.42,28.18-18.61,10.68-7.03,21.37-14.04,32.05-21.06.44-.29.9-.53,1.54-.89,6.75,9.81,10.05,20.66,10.64,32.67,5.96-1.93,11.74-3.79,17.59-5.68,1.33,2.74,1.85,5.55,2.32,8.35,2.62,15.56-1.17,29.58-10.24,42.3-2.41,3.38-5.29,6.35-8.55,8.92-1.15.9-1.65,1.86-1.63,3.36.08,8.26.09,16.53.02,24.79-.19,21.93-5.71,42.39-17.06,61.2-12.23,20.27-29.04,35.6-50.32,45.99-8.34,4.07-17.02,7.28-26.16,8.96-5.09.94-10.27,1.54-15.43,1.85-22.29,1.34-44.62,1.27-66.93,1.11-11.46-.08-22.92-.34-34.37-.78-10.25-.39-20.4-1.6-30.24-4.83-12.18-4-23.53-9.6-33.87-17.17-20.39-14.93-34.72-34.37-42.92-58.27-4.31-12.57-6.34-25.54-6.33-38.85.03-47.78.01-95.56.01-143.34,0-.6-.09-1.22.02-1.8.29-1.6-.54-2.37-1.83-3.09-8.82-4.97-17.6-10-26.39-15.01-8.16-4.65-16.32-9.29-24.45-13.98-1.26-.72-2.51-1.57-3.51-2.6-4.92-5.07-4.14-13.34,1.75-17.25,3.49-2.31,7.22-4.26,10.87-6.34,13.7-7.83,27.42-15.64,41.13-23.46.35-.2.68-.43,1.04-.59.99-.46,1.42-1.12,1.51-2.3.47-6.55,1.76-12.94,4.24-19.03,7.45-18.3,20.37-30.94,39.15-37.36,7.28-2.49,7.29-2.43,14.08-8.28,6.75-5.82,13.55-11.59,20.34-17.37.25-.21.53-.37.94-.66Z"/>
</svg>